<svg xmlns="http://www.w3.org/2000/svg" viewBox="3966.55 209.97 418.93 379.46" width="300" height="271">
  <path d="M 4093.16 354.13 Q 4093.16 353.56 4093.44 353.56 Q 4093.73 353.56 4094.01 353.27 Q 4094.29 352.98 4094.58 352.98 Q 4094.86 352.98 4095.43 352.69 Q 4095.99 352.40 4096.28 352.12 Q 4096.56 351.83 4096.84 351.54 Q 4097.12 351.25 4097.41 351.25 Q 4097.69 351.25 4097.69 350.96 Q 4097.69 350.68 4097.97 350.68 Q 4098.26 350.68 4098.54 350.39 Q 4098.82 350.10 4099.11 349.81 Q 4099.39 349.52 4099.67 349.52 Q 4099.96 349.52 4100.24 349.24 Q 4100.52 348.95 4100.81 348.95 Q 4101.09 348.95 4101.37 348.66 Q 4101.66 348.37 4101.94 348.37 Q 4102.22 348.37 4102.51 348.08 Q 4102.79 347.79 4103.07 347.51 Q 4103.36 347.22 4103.64 347.22 Q 4103.92 347.22 4104.20 346.93 Q 4104.49 346.64 4104.77 346.35 Q 4105.05 346.07 4105.34 346.07 Q 4105.62 346.07 4105.62 345.78 Q 4105.62 345.49 4105.90 345.49 Q 4106.19 345.49 4106.47 345.20 Q 4106.75 344.91 4107.04 344.91 Q 4107.32 344.91 4107.32 344.63 Q 4107.32 344.34 4107.60 344.34 Q 4107.89 344.34 4108.17 344.05 Q 4108.45 343.76 4108.74 343.76 Q 4109.02 343.76 4109.59 343.19 Q 4110.15 342.61 4110.72 342.32 Q 4111.28 342.03 4111.85 341.75 Q 4112.42 341.46 4113.27 341.17 Q 4114.12 340.88 4114.68 340.30 Q 4115.25 339.73 4116.10 339.44 Q 4116.95 339.15 4117.52 338.86 Q 4118.08 338.58 4118.37 338.29 Q 4118.65 338.00 4118.93 338.00 Q 4119.21 338.00 4119.21 337.71 Q 4119.21 337.42 4119.78 337.42 Q 4120.35 337.42 4120.63 337.14 Q 4120.91 336.85 4121.20 336.85 Q 4121.48 336.85 4121.48 336.56 Q 4121.48 336.27 4121.76 336.27 Q 4122.05 336.27 4122.33 336.27 Q 4122.61 336.27 4122.90 335.98 Q 4123.18 335.70 4123.75 335.41 Q 4124.31 335.12 4124.88 334.83 Q 4125.45 334.54 4126.29 334.25 Q 4127.14 333.97 4127.71 333.68 Q 4128.28 333.39 4129.13 332.81 Q 4129.98 332.24 4130.83 331.95 Q 4131.68 331.66 4131.96 331.66 Q 4132.24 331.66 4133.37 331.09 Q 4134.51 330.51 4134.79 330.22 Q 4135.07 329.93 4135.64 329.65 Q 4136.21 329.36 4136.49 329.36 Q 4136.77 329.36 4137.34 328.78 Q 4137.91 328.21 4138.47 327.92 Q 4139.04 327.63 4139.61 327.34 Q 4140.17 327.05 4140.74 326.48 Q 4141.30 325.90 4141.87 325.61 Q 4142.44 325.32 4143.00 325.04 Q 4143.57 324.75 4143.85 324.75 Q 4144.14 324.75 4144.70 324.17 Q 4145.27 323.60 4145.55 323.60 Q 4145.84 323.60 4146.12 323.31 Q 4146.40 323.02 4146.69 322.73 Q 4146.97 322.44 4147.25 322.44 Q 4147.53 322.44 4147.82 322.16 Q 4148.10 321.87 4148.38 321.87 Q 4148.67 321.87 4148.95 321.58 Q 4149.23 321.29 4149.52 321.29 Q 4149.80 321.29 4150.08 321.00 Q 4150.37 320.71 4150.65 320.71 Q 4150.93 320.71 4150.93 320.43 Q 4150.93 320.14 4151.22 320.14 Q 4151.50 320.14 4151.78 319.85 Q 4152.07 319.56 4152.63 319.27 Q 4153.20 318.99 4154.05 318.41 Q 4154.90 317.83 4155.46 317.55 Q 4156.03 317.26 4156.31 316.97 Q 4156.60 316.68 4157.16 316.39 Q 4157.73 316.11 4158.30 315.53 Q 4158.86 314.95 4159.15 314.95 Q 4159.43 314.95 4159.71 314.67 Q 4160.00 314.38 4160.28 314.09 Q 4160.56 313.80 4160.85 313.51 Q 4161.13 313.22 4161.70 312.94 Q 4162.26 312.65 4162.54 312.36 Q 4162.83 312.07 4163.39 311.78 Q 4163.96 311.50 4164.53 310.92 Q 4165.09 310.34 4165.66 310.06 Q 4166.23 309.77 4166.51 309.48 Q 4166.79 309.19 4167.36 308.90 Q 4167.93 308.62 4168.21 308.33 Q 4168.49 308.04 4168.78 308.04 Q 4169.06 308.04 4169.62 308.04 Q 4170.19 308.04 4170.47 308.04 Q 4170.76 308.04 4170.76 307.75 Q 4170.76 307.46 4171.04 307.46 Q 4171.32 307.46 4171.89 307.17 Q 4172.46 306.89 4173.02 306.89 Q 4173.59 306.89 4174.16 306.60 Q 4174.72 306.31 4175.29 306.02 Q 4175.86 305.73 4176.42 305.45 Q 4176.99 305.16 4177.55 305.16 Q 4178.12 305.16 4178.12 304.87 Q 4178.12 304.58 4178.40 304.58 Q 4178.69 304.58 4178.97 304.58 Q 4179.25 304.58 4179.54 304.58 Q 4179.82 304.58 4179.82 304.87 Q 4179.82 305.15 4180.10 305.15 Q 4180.39 305.15 4180.95 305.43 Q 4181.52 305.71 4181.80 306.00 Q 4182.09 306.28 4182.37 306.28 Q 4182.65 306.28 4182.94 306.56 Q 4183.22 306.85 4183.78 307.13 Q 4184.35 307.41 4184.63 307.70 Q 4184.92 307.98 4185.48 308.26 Q 4186.05 308.55 4186.90 308.83 Q 4187.75 309.11 4188.03 309.40 Q 4188.32 309.68 4188.60 309.96 Q 4188.88 310.25 4189.17 310.53 Q 4189.45 310.81 4189.73 310.81 Q 4190.02 310.81 4190.30 311.10 Q 4190.58 311.38 4190.87 311.66 Q 4191.15 311.95 4191.43 312.23 Q 4191.71 312.51 4192.00 312.51 Q 4192.28 312.51 4192.56 312.79 Q 4192.85 313.08 4193.70 313.64 Q 4194.55 314.21 4195.11 314.49 Q 4195.68 314.78 4196.25 315.34 Q 4196.81 315.91 4197.66 316.48 Q 4198.51 317.04 4198.79 317.33 Q 4199.08 317.61 4199.36 317.89 Q 4199.64 318.18 4199.93 318.18 Q 4200.21 318.18 4200.21 318.46 Q 4200.21 318.74 4200.49 318.74 Q 4200.78 318.74 4201.06 319.03 Q 4201.34 319.31 4201.91 319.59 Q 4202.48 319.87 4202.76 319.87 Q 4203.04 319.87 4203.33 320.16 Q 4203.61 320.44 4204.18 320.72 Q 4204.74 321.01 4205.03 321.29 Q 4205.31 321.57 4205.87 321.86 Q 4206.44 322.14 4206.72 322.14 Q 4207.01 322.14 4207.29 322.42 Q 4207.57 322.71 4208.42 323.27 Q 4209.27 323.84 4209.56 324.12 Q 4209.84 324.41 4210.12 324.69 Q 4210.41 324.97 4210.41 325.26 Q 4210.41 325.54 4210.69 325.54 Q 4210.97 325.54 4211.26 325.82 Q 4211.54 326.11 4211.82 326.11 Q 4212.11 326.11 4212.11 326.39 Q 4212.11 326.67 4212.39 326.67 Q 4212.67 326.67 4212.95 326.96 Q 4213.24 327.24 4213.52 327.24 Q 4213.80 327.24 4214.09 327.52 Q 4214.37 327.80 4214.65 328.09 Q 4214.94 328.37 4215.22 328.65 Q 4215.50 328.94 4215.79 329.22 Q 4216.07 329.50 4216.35 329.79 Q 4216.64 330.07 4217.20 330.07 Q 4217.77 330.07 4218.05 330.35 Q 4218.34 330.64 4218.90 330.92 Q 4219.47 331.20 4220.32 331.49 Q 4221.17 331.77 4221.73 332.05 Q 4222.30 332.34 4223.15 332.62 Q 4224.00 332.90 4224.57 333.19 Q 4225.13 333.47 4225.70 333.75 Q 4226.27 334.04 4227.12 334.32 Q 4227.96 334.60 4228.25 334.88 Q 4228.53 335.17 4228.81 335.17 Q 4229.10 335.17 4229.38 335.45 Q 4229.66 335.73 4229.95 335.73 Q 4230.23 335.73 4230.51 336.02 Q 4230.80 336.30 4231.08 336.58 Q 4231.36 336.87 4231.65 336.87 Q 4231.93 336.87 4232.21 336.87 Q 4232.50 336.87 4232.78 337.15 Q 4233.06 337.43 4233.35 337.43 Q 4233.63 337.43 4233.91 337.72 Q 4234.20 338.00 4234.48 338.00 Q 4234.76 338.00 4235.04 338.28 Q 4235.33 338.57 4235.61 338.57 Q 4235.89 338.57 4236.18 338.85 Q 4236.46 339.13 4236.74 339.13 Q 4237.03 339.13 4237.31 339.13 Q 4237.59 339.13 4237.88 339.42 Q 4238.16 339.70 4238.44 339.98 Q 4238.73 340.27 4239.01 340.27 Q 4239.29 340.27 4239.58 340.55 Q 4239.86 340.83 4240.71 341.12 Q 4241.56 341.40 4241.84 341.40 Q 4242.12 341.40 4242.69 341.68 Q 4243.26 341.96 4243.82 342.25 Q 4244.39 342.53 4244.96 342.81 Q 4245.52 343.10 4246.09 343.10 Q 4246.66 343.10 4246.94 343.38 Q 4247.22 343.66 4247.51 343.66 Q 4247.79 343.66 4248.07 343.66 Q 4248.36 343.66 4248.36 343.95 Q 4248.36 344.23 4248.64 344.23 Q 4248.92 344.23 4249.20 344.51 Q 4249.49 344.80 4249.77 344.80 Q 4250.05 344.80 4250.62 345.08 Q 4251.19 345.36 4251.47 345.65 Q 4251.75 345.93 4252.04 345.93 Q 4252.32 345.93 4252.32 346.21 Q 4252.32 346.50 4252.89 346.50 Q 4253.45 346.50 4253.45 346.78 Q 4253.45 347.06 4253.74 347.06 Q 4254.02 347.06 4254.02 347.35 Q 4254.02 347.63 4254.30 347.63 Q 4254.59 347.63 4254.87 347.91 Q 4255.15 348.20 4255.44 348.48 Q 4255.72 348.76 4256.00 348.76 Q 4256.28 348.76 4256.57 348.76 Q 4256.85 348.76 4257.13 349.04 Q 4257.42 349.33 4257.70 349.33 Q 4257.98 349.33 4258.27 349.33 Q 4258.55 349.33 4258.55 349.61 Q 4258.55 349.89 4258.83 349.89 Q 4259.12 349.89 4259.12 350.18 Q 4259.12 350.46 4259.12 350.74 Q 4259.12 351.03 4259.12 351.31 Q 4259.12 351.59 4259.12 351.88 Q 4259.12 352.16 4259.12 352.44 Q 4259.12 352.73 4259.12 353.01 Q 4259.12 353.29 4259.12 353.86 Q 4259.12 354.43 4259.12 354.99 Q 4259.12 355.56 4259.12 355.84 Q 4259.12 356.12 4259.12 356.69 Q 4259.12 357.26 4259.12 358.11 Q 4259.12 358.96 4259.12 359.52 Q 4259.12 360.09 4259.12 360.66 Q 4259.12 361.22 4259.12 361.51 Q 4259.12 361.79 4259.12 362.36 Q 4259.12 362.92 4259.12 363.21 Q 4259.12 363.49 4259.12 364.05 Q 4259.12 364.62 4258.83 364.90 Q 4258.54 365.19 4258.54 365.47 Q 4258.54 365.75 4258.54 366.32 Q 4258.54 366.89 4258.54 367.17 Q 4258.54 367.45 4258.54 367.74 Q 4258.54 368.02 4258.54 368.30 Q 4258.54 368.59 4258.54 368.87 Q 4258.54 369.15 4258.54 369.44 Q 4258.54 369.72 4258.54 370.00 Q 4258.54 370.29 4258.54 370.57 Q 4258.54 370.85 4258.54 371.13 Q 4258.54 371.42 4258.54 371.70 Q 4258.54 371.98 4258.54 372.27 Q 4258.54 372.55 4258.54 373.12 Q 4258.54 373.68 4258.54 373.97 Q 4258.54 374.25 4258.54 374.53 Q 4258.54 374.82 4258.54 375.10 Q 4258.54 375.38 4258.54 375.67 Q 4258.54 375.95 4258.54 376.23 Q 4258.54 376.52 4258.54 376.80 Q 4258.54 377.08 4258.54 377.37 Q 4258.54 377.65 4258.54 377.93 Q 4258.54 378.21 4258.54 378.50 Q 4258.54 378.78 4258.54 379.06 Q 4258.54 379.35 4258.54 379.63 Q 4258.54 379.91 4258.82 380.20 Q 4259.11 380.48 4259.11 380.76 Q 4259.11 381.05 4259.11 381.33 Q 4259.11 381.61 4259.11 381.90 Q 4259.11 382.18 4259.11 382.46 Q 4259.11 382.75 4259.11 383.03 Q 4259.11 383.31 4259.11 383.60 Q 4259.11 383.88 4259.11 384.16 Q 4259.11 384.45 4259.11 385.01 Q 4259.11 385.58 4259.11 386.14 Q 4259.11 386.71 4259.39 386.99 Q 4259.67 387.28 4259.67 387.56 Q 4259.67 387.84 4259.67 388.13 Q 4259.67 388.41 4259.67 388.69 Q 4259.67 388.98 4259.67 389.26 Q 4259.67 389.54 4259.67 389.83 Q 4259.67 390.11 4259.67 390.39 Q 4259.67 390.68 4259.67 390.96 Q 4259.67 391.24 4259.67 391.53 Q 4259.67 391.81 4259.67 392.37 Q 4259.67 392.94 4259.67 393.22 Q 4259.67 393.51 4259.67 394.07 Q 4259.67 394.64 4259.67 395.21 Q 4259.67 395.77 4259.67 396.34 Q 4259.67 396.91 4259.67 397.47 Q 4259.67 398.04 4259.67 398.61 Q 4259.67 399.17 4259.67 399.74 Q 4259.67 400.30 4259.67 400.59 Q 4259.67 400.87 4259.67 401.44 Q 4259.67 402.00 4259.67 402.29 Q 4259.67 402.57 4259.67 403.14 Q 4259.67 403.70 4259.67 403.99 Q 4259.67 404.27 4259.67 404.55 Q 4259.67 404.84 4259.67 405.40 Q 4259.67 405.97 4259.67 406.54 Q 4259.67 407.10 4259.67 407.95 Q 4259.67 408.80 4259.67 409.37 Q 4259.67 409.93 4259.67 410.22 Q 4259.67 410.50 4259.67 410.78 Q 4259.67 411.07 4259.67 411.35 Q 4259.67 411.63 4259.67 411.92 Q 4259.67 412.20 4259.67 412.48 Q 4259.67 412.77 4259.67 413.05 Q 4259.67 413.33 4259.67 413.62 Q 4259.67 413.90 4259.67 414.46 Q 4259.67 415.03 4259.67 415.31 Q 4259.67 415.60 4259.67 416.16 Q 4259.67 416.73 4259.67 417.01 Q 4259.67 417.30 4259.67 417.58 Q 4259.67 417.86 4259.39 418.43 Q 4259.10 419.00 4259.10 419.28 Q 4259.10 419.56 4259.10 419.85 Q 4259.10 420.13 4259.10 420.41 Q 4259.10 420.70 4259.10 420.98 Q 4259.10 421.26 4259.10 421.54 Q 4259.10 421.83 4259.10 422.11 Q 4259.10 422.39 4259.10 422.96 Q 4259.10 423.53 4259.10 423.81 Q 4259.10 424.09 4259.10 424.38 Q 4259.10 424.66 4259.10 424.94 Q 4259.10 425.23 4259.10 425.51 Q 4259.10 425.79 4259.10 426.08 Q 4259.10 426.36 4259.10 426.64 Q 4259.10 426.93 4259.10 427.21 Q 4259.10 427.49 4259.10 427.78 Q 4259.10 428.06 4259.10 428.62 Q 4259.10 429.19 4259.10 429.47 Q 4259.10 429.76 4259.10 430.32 Q 4259.10 430.89 4259.10 431.17 Q 4259.10 431.46 4259.10 432.02 Q 4259.10 432.59 4259.10 433.44 Q 4259.10 434.29 4259.10 434.86 Q 4259.10 435.42 4259.10 435.71 Q 4259.10 435.99 4259.10 436.27 Q 4259.10 436.55 4259.10 436.84 Q 4259.10 437.12 4259.10 437.40 Q 4259.10 437.69 4259.38 437.69 Q 4259.66 437.69 4259.38 437.97 Q 4259.09 438.25 4258.80 438.54 Q 4258.51 438.82 4258.22 439.10 Q 4257.94 439.39 4257.65 439.67 Q 4257.36 439.95 4257.07 439.95 Q 4256.78 439.95 4256.49 439.95 Q 4256.21 439.95 4256.21 440.24 Q 4256.21 440.52 4255.92 440.52 Q 4255.63 440.52 4255.63 440.80 Q 4255.63 441.09 4255.34 441.09 Q 4255.05 441.09 4254.77 441.09 Q 4254.48 441.09 4254.19 441.37 Q 4253.90 441.65 4253.61 441.94 Q 4253.33 442.22 4253.04 442.22 Q 4252.75 442.22 4252.75 442.50 Q 4252.75 442.79 4252.46 442.79 Q 4252.17 442.79 4251.89 443.07 Q 4251.60 443.35 4251.31 443.63 Q 4251.02 443.92 4250.73 443.92 Q 4250.45 443.92 4250.16 444.20 Q 4249.87 444.48 4249.58 444.77 Q 4249.29 445.05 4249.00 445.33 Q 4248.72 445.62 4248.43 445.90 Q 4248.14 446.18 4247.85 446.18 Q 4247.56 446.18 4246.99 446.47 Q 4246.41 446.75 4245.84 447.03 Q 4245.26 447.32 4244.97 447.60 Q 4244.68 447.88 4244.68 448.17 Q 4244.68 448.45 4244.40 448.45 Q 4244.11 448.45 4243.82 448.73 Q 4243.53 449.02 4243.24 449.30 Q 4242.95 449.58 4242.67 449.87 Q 4242.38 450.15 4241.80 450.43 Q 4241.23 450.71 4240.65 451.00 Q 4240.07 451.28 4239.21 451.56 Q 4238.35 451.85 4237.77 452.41 Q 4237.19 452.98 4236.04 453.26 Q 4234.89 453.55 4234.31 453.83 Q 4233.74 454.11 4233.45 454.11 Q 4233.16 454.11 4232.87 454.40 Q 4232.58 454.68 4232.58 454.96 Q 4232.58 455.25 4232.30 455.25 Q 4232.01 455.25 4231.43 455.53 Q 4230.86 455.81 4230.57 456.10 Q 4230.28 456.38 4229.70 456.66 Q 4229.13 456.95 4228.84 457.23 Q 4228.55 457.51 4228.26 457.79 Q 4227.97 458.08 4227.40 458.36 Q 4226.82 458.64 4226.53 458.93 Q 4226.25 459.21 4225.96 459.49 Q 4225.67 459.78 4225.09 459.78 Q 4224.52 459.78 4224.23 460.06 Q 4223.94 460.34 4223.65 460.63 Q 4223.37 460.91 4223.08 460.91 Q 4222.79 460.91 4222.79 461.19 Q 4222.79 461.48 4222.50 461.48 Q 4222.21 461.48 4221.92 461.48 Q 4221.64 461.48 4221.35 461.76 Q 4221.06 462.04 4220.77 462.33 Q 4220.48 462.61 4220.20 462.89 Q 4219.91 463.18 4219.62 463.18 Q 4219.33 463.18 4219.04 463.46 Q 4218.76 463.74 4218.47 464.03 Q 4218.18 464.31 4217.89 464.59 Q 4217.60 464.87 4217.32 464.87 Q 4217.03 464.87 4216.74 465.16 Q 4216.45 465.44 4216.16 465.72 Q 4215.87 466.01 4215.30 466.29 Q 4214.72 466.57 4214.43 466.86 Q 4214.15 467.14 4213.57 467.71 Q 4212.99 468.27 4212.42 468.56 Q 4211.84 468.84 4210.98 469.41 Q 4210.11 469.97 4209.54 470.26 Q 4208.96 470.54 4208.38 471.11 Q 4207.81 471.67 4207.23 471.96 Q 4206.66 472.24 4206.37 472.52 Q 4206.08 472.80 4205.79 473.09 Q 4205.50 473.37 4205.50 473.65 Q 4205.50 473.94 4205.22 473.94 Q 4204.93 473.94 4204.64 474.22 Q 4204.35 474.50 4204.06 474.79 Q 4203.78 475.07 4203.49 475.35 Q 4203.20 475.64 4202.91 475.92 Q 4202.62 476.20 4202.33 476.49 Q 4202.05 476.77 4201.47 477.05 Q 4200.89 477.34 4200.89 477.62 Q 4200.89 477.90 4200.61 477.90 Q 4200.32 477.90 4200.03 478.19 Q 4199.74 478.47 4199.45 478.75 Q 4199.17 479.04 4199.17 479.32 Q 4199.17 479.60 4198.88 479.60 Q 4198.59 479.60 4198.30 479.88 Q 4198.01 480.17 4197.73 480.45 Q 4197.44 480.73 4197.15 481.02 Q 4196.86 481.30 4196.57 481.58 Q 4196.28 481.87 4196.00 481.87 Q 4195.71 481.87 4195.42 482.15 Q 4195.13 482.43 4194.84 482.72 Q 4194.56 483.00 4194.27 483.00 Q 4193.98 483.00 4193.98 483.28 Q 4193.98 483.57 4193.69 483.57 Q 4193.40 483.57 4193.40 483.85 Q 4193.40 484.13 4193.12 484.13 Q 4192.83 484.13 4192.83 484.42 Q 4192.83 484.70 4192.25 484.98 Q 4191.68 485.27 4191.39 485.27 Q 4191.10 485.27 4190.52 485.83 Q 4189.95 486.40 4189.66 486.68 Q 4189.37 486.96 4189.08 486.96 Q 4188.79 486.96 4188.79 487.25 Q 4188.79 487.53 4188.51 487.53 Q 4188.22 487.53 4187.93 487.81 Q 4187.64 488.10 4187.64 488.38 Q 4187.64 488.66 4187.35 488.66 Q 4187.07 488.66 4186.78 488.66 Q 4186.49 488.66 4186.20 488.95 Q 4185.91 489.23 4185.34 489.51 Q 4184.76 489.80 4184.47 489.80 Q 4184.19 489.80 4183.90 490.08 Q 4183.61 490.36 4183.32 490.36 Q 4183.03 490.36 4182.74 490.65 Q 4182.46 490.93 4182.17 490.93 Q 4181.88 490.93 4181.59 490.93 Q 4181.30 490.93 4180.73 491.21 Q 4180.15 491.50 4179.29 492.06 Q 4178.42 492.63 4177.85 492.91 Q 4177.27 493.20 4176.70 493.20 Q 4176.12 493.20 4175.83 493.20 Q 4175.54 493.20 4175.25 493.20 Q 4174.97 493.20 4174.97 493.48 Q 4174.97 493.76 4174.68 493.76 Q 4174.39 493.76 4174.10 493.76 Q 4173.81 493.76 4173.53 493.47 Q 4173.24 493.19 4172.95 493.19 Q 4172.66 493.19 4172.37 493.19 Q 4172.09 493.19 4171.80 492.90 Q 4171.51 492.61 4171.22 492.61 Q 4170.93 492.61 4170.65 492.61 Q 4170.36 492.61 4170.07 492.32 Q 4169.78 492.03 4169.49 492.03 Q 4169.20 492.03 4168.92 491.75 Q 4168.63 491.46 4168.05 491.17 Q 4167.48 490.88 4167.19 490.59 Q 4166.90 490.30 4166.61 490.30 Q 4166.32 490.30 4165.75 489.73 Q 4165.17 489.15 4164.60 489.15 Q 4164.02 489.15 4163.73 488.86 Q 4163.44 488.58 4163.16 488.29 Q 4162.87 488.00 4162.29 487.71 Q 4161.71 487.42 4161.43 487.14 Q 4161.14 486.85 4160.56 486.56 Q 4159.99 486.27 4159.70 485.98 Q 4159.41 485.70 4159.12 485.41 Q 4158.83 485.12 4158.55 485.12 Q 4158.26 485.12 4157.97 484.83 Q 4157.68 484.54 4157.39 484.25 Q 4157.11 483.97 4156.82 483.68 Q 4156.53 483.39 4156.24 483.10 Q 4155.95 482.81 4155.66 482.81 Q 4155.38 482.81 4155.38 482.53 Q 4155.38 482.24 4154.80 481.95 Q 4154.22 481.66 4153.94 481.37 Q 4153.65 481.09 4153.65 480.80 Q 4153.65 480.51 4153.36 480.51 Q 4153.07 480.51 4153.07 480.22 Q 4153.07 479.93 4152.78 479.93 Q 4152.50 479.93 4152.21 479.65 Q 4151.92 479.36 4151.63 479.36 Q 4151.34 479.36 4151.06 479.07 Q 4150.77 478.78 4150.77 478.49 Q 4150.77 478.21 4150.48 477.92 Q 4150.19 477.63 4149.90 477.34 Q 4149.62 477.05 4149.33 476.76 Q 4149.04 476.48 4148.46 476.19 Q 4147.89 475.90 4147.60 475.61 Q 4147.31 475.32 4147.02 475.04 Q 4146.73 474.75 4146.45 474.46 Q 4146.16 474.17 4145.87 473.88 Q 4145.58 473.60 4145.01 473.31 Q 4144.43 473.02 4144.14 472.73 Q 4143.85 472.44 4143.28 472.16 Q 4142.70 471.87 4142.41 471.58 Q 4142.12 471.29 4141.84 471.29 Q 4141.55 471.29 4141.26 471.00 Q 4140.97 470.71 4140.68 470.71 Q 4140.40 470.71 4140.11 470.43 Q 4139.82 470.14 4139.53 470.14 Q 4139.24 470.14 4138.96 469.85 Q 4138.67 469.56 4138.38 469.27 Q 4138.09 468.99 4137.52 468.70 Q 4136.94 468.41 4136.65 468.41 Q 4136.36 468.41 4135.79 468.12 Q 4135.21 467.83 4134.35 467.55 Q 4133.48 467.26 4133.19 467.26 Q 4132.91 467.26 4132.33 466.97 Q 4131.75 466.68 4131.47 466.68 Q 4131.18 466.68 4130.89 466.39 Q 4130.60 466.11 4130.31 466.11 Q 4130.03 466.11 4129.74 466.11 Q 4129.45 466.11 4129.45 465.82 Q 4129.45 465.53 4129.16 465.53 Q 4128.87 465.53 4128.58 465.24 Q 4128.30 464.95 4127.72 464.95 Q 4127.14 464.95 4126.86 464.67 Q 4126.57 464.38 4125.70 464.09 Q 4124.84 463.80 4124.26 463.51 Q 4123.69 463.22 4123.11 462.94 Q 4122.53 462.65 4121.67 462.36 Q 4120.81 462.07 4120.52 461.78 Q 4120.23 461.50 4119.94 461.50 Q 4119.65 461.50 4119.37 461.50 Q 4119.08 461.50 4119.08 461.21 Q 4119.08 460.92 4118.79 460.92 Q 4118.50 460.92 4118.21 460.92 Q 4117.93 460.92 4117.64 460.92 Q 4117.35 460.92 4117.06 460.63 Q 4116.77 460.34 4116.49 460.34 Q 4116.20 460.34 4115.91 460.06 Q 4115.62 459.77 4115.33 459.77 Q 4115.04 459.77 4114.76 459.77 Q 4114.47 459.77 4114.18 459.48 Q 4113.89 459.19 4113.60 459.19 Q 4113.32 459.19 4113.03 458.90 Q 4112.74 458.62 4112.45 458.33 Q 4112.16 458.04 4111.30 457.75 Q 4110.44 457.46 4110.15 457.17 Q 4109.86 456.89 4108.71 456.31 Q 4107.55 455.73 4107.55 455.45 Q 4107.55 455.16 4107.27 455.16 Q 4106.98 455.16 4106.69 454.87 Q 4106.40 454.58 4106.11 454.58 Q 4105.83 454.58 4105.83 454.29 Q 4105.83 454.01 4105.54 454.01 Q 4105.25 454.01 4104.96 454.01 Q 4104.67 454.01 4104.39 453.72 Q 4104.10 453.43 4103.81 453.43 Q 4103.52 453.43 4103.23 453.43 Q 4102.95 453.43 4102.66 453.43 Q 4102.37 453.43 4102.37 453.14 Q 4102.37 452.85 4102.08 452.85 Q 4101.79 452.85 4101.50 452.85 Q 4101.22 452.85 4101.22 452.57 Q 4101.22 452.28 4100.93 452.28 Q 4100.64 452.28 4100.35 452.28 Q 4100.06 452.28 4099.78 451.99 Q 4099.49 451.70 4099.20 451.70 Q 4098.91 451.70 4098.62 451.70 Q 4098.34 451.70 4098.05 451.70 Q 4097.76 451.70 4097.76 451.41 Q 4097.76 451.12 4097.47 451.12 Q 4097.18 451.12 4097.18 450.84 Q 4097.18 450.55 4096.90 450.55 Q 4096.61 450.55 4096.61 450.26 Q 4096.61 449.97 4096.61 449.68 Q 4096.61 449.40 4096.32 449.40 Q 4096.03 449.40 4096.03 449.11 Q 4096.03 448.82 4095.74 448.82 Q 4095.45 448.82 4095.17 448.82 Q 4094.88 448.82 4094.59 448.53 Q 4094.30 448.24 4094.01 448.24 Q 4093.73 448.24 4093.73 447.96 Q 4093.73 447.67 4093.73 447.38 Q 4093.73 447.09 4093.73 446.80 Q 4093.73 446.52 4093.73 445.94 Q 4093.73 445.36 4093.73 445.08 Q 4093.73 444.79 4093.73 444.21 Q 4093.73 443.63 4093.73 443.35 Q 4093.73 443.06 4093.73 441.91 Q 4093.73 440.75 4093.73 439.89 Q 4093.73 439.03 4093.73 438.74 Q 4093.73 438.45 4093.73 438.16 Q 4093.73 437.87 4093.73 437.58 Q 4093.73 437.30 4093.73 437.01 Q 4093.73 436.72 4093.73 436.43 Q 4093.73 436.14 4093.73 435.86 Q 4093.73 435.57 4093.73 435.28 Q 4093.73 434.99 4093.73 434.70 Q 4093.73 434.42 4093.73 433.55 Q 4093.73 432.69 4093.73 432.40 Q 4093.73 432.11 4093.73 431.82 Q 4093.73 431.54 4094.01 430.96 Q 4094.29 430.38 4094.29 430.09 Q 4094.29 429.81 4094.29 429.52 Q 4094.29 429.23 4094.29 428.65 Q 4094.29 428.08 4094.29 427.79 Q 4094.29 427.50 4094.29 427.21 Q 4094.29 426.93 4094.29 426.64 Q 4094.29 426.35 4094.58 426.35 Q 4094.86 426.35 4094.86 426.06 Q 4094.86 425.77 4094.86 425.49 Q 4094.86 425.20 4094.86 424.91 Q 4094.86 424.62 4094.86 424.33 Q 4094.86 424.04 4094.86 423.76 Q 4094.86 423.47 4094.86 422.89 Q 4094.86 422.32 4094.86 421.74 Q 4094.86 421.16 4095.14 420.59 Q 4095.43 420.01 4095.43 419.72 Q 4095.43 419.44 4095.43 418.86 Q 4095.43 418.28 4095.71 417.71 Q 4095.99 417.13 4095.99 416.55 Q 4095.99 415.98 4095.99 415.69 Q 4095.99 415.40 4095.99 414.83 Q 4095.99 414.25 4095.99 413.67 Q 4095.99 413.10 4095.99 412.52 Q 4095.99 411.95 4096.28 411.66 Q 4096.56 411.37 4096.56 411.08 Q 4096.56 410.79 4096.56 410.22 Q 4096.56 409.64 4096.56 409.35 Q 4096.56 409.06 4096.56 408.49 Q 4096.56 407.91 4096.56 407.34 Q 4096.56 406.76 4096.56 406.47 Q 4096.56 406.18 4096.56 405.61 Q 4096.56 405.03 4096.56 404.46 Q 4096.56 403.88 4096.56 403.30 Q 4096.56 402.73 4096.56 402.44 Q 4096.56 402.15 4096.56 401.86 Q 4096.56 401.57 4096.56 401.00 Q 4096.56 400.42 4096.56 400.13 Q 4096.56 399.85 4096.56 399.56 Q 4096.56 399.27 4096.56 398.98 Q 4096.56 398.69 4096.56 398.41 Q 4096.56 398.12 4096.56 397.54 Q 4096.56 396.96 4096.56 396.68 Q 4096.56 396.39 4096.56 396.10 Q 4096.56 395.81 4096.56 395.52 Q 4096.56 395.24 4096.56 394.95 Q 4096.56 394.66 4096.56 394.37 Q 4096.56 394.08 4096.56 393.80 Q 4096.56 393.51 4096.56 393.22 Q 4096.56 392.93 4096.56 392.64 Q 4096.56 392.36 4096.27 392.07 Q 4095.98 391.78 4095.98 391.49 Q 4095.98 391.20 4095.98 390.92 Q 4095.98 390.63 4095.69 390.34 Q 4095.41 390.05 4095.41 389.47 Q 4095.41 388.90 4095.12 388.61 Q 4094.83 388.32 4094.83 388.03 Q 4094.83 387.75 4094.54 387.17 Q 4094.25 386.59 4094.25 386.31 Q 4094.25 386.02 4094.25 385.73 Q 4094.25 385.44 4094.25 385.15 Q 4094.25 384.87 4093.97 384.87 Q 4093.68 384.87 4093.68 384.58 Q 4093.68 384.29 4093.68 384.00 Q 4093.68 383.71 4093.68 383.42 Q 4093.68 383.14 4093.68 382.56 Q 4093.68 381.98 4093.68 381.41 Q 4093.68 380.83 4093.68 380.54 Q 4093.68 380.26 4093.68 379.68 Q 4093.68 379.10 4093.68 378.53 Q 4093.68 377.95 4093.68 377.37 Q 4093.68 376.80 4093.68 376.22 Q 4093.68 375.65 4093.68 375.07 Q 4093.68 374.49 4093.68 373.92 Q 4093.68 373.34 4093.68 373.05 Q 4093.68 372.77 4093.68 372.19 Q 4093.68 371.61 4093.68 371.33 Q 4093.68 371.04 4093.68 370.75 Q 4093.68 370.46 4093.68 370.17 Q 4093.68 369.88 4093.68 369.60 Q 4093.68 369.31 4093.68 369.02 Q 4093.68 368.73 4093.68 368.44 Q 4093.68 368.16 4093.68 367.87 Q 4093.68 367.58 4093.68 367.29 Q 4093.68 367.00 4093.68 366.72 Q 4093.68 366.43 4093.68 366.14 Q 4093.68 365.85 4093.96 365.56 Q 4094.24 365.28 4094.24 364.99 Q 4094.24 364.70 4094.24 364.41 Q 4094.24 364.12 4094.24 363.83 Q 4094.24 363.55 4094.24 363.26 Q 4094.24 362.97 4094.24 362.68 Q 4094.24 362.39 4094.24 362.11 Q 4094.24 361.82 4094.24 361.53 Q 4094.24 361.24 4094.24 360.95 Q 4094.24 360.67 4094.24 360.38 Q 4094.24 360.09 4093.70 357.11 L 4093.16 354.13 Z" fill="#ff5f45" stroke="#ff5f45" stroke-width="2" stroke-linecap="round" stroke-linejoin="round"/>
  <path d="M 4089.40 231.68 Q 4089.40 232.25 4089.40 232.53 Q 4089.40 232.81 4089.40 233.10 Q 4089.40 233.38 4089.40 233.66 Q 4089.40 233.95 4089.40 234.23 Q 4089.40 234.51 4089.11 235.08 Q 4088.82 235.65 4088.82 235.93 Q 4088.82 236.21 4088.82 236.50 Q 4088.82 236.78 4088.82 237.06 Q 4088.82 237.35 4088.82 237.63 Q 4088.82 237.91 4088.82 238.20 Q 4088.82 238.48 4088.82 238.76 Q 4088.82 239.04 4088.82 239.33 Q 4088.82 239.61 4088.82 239.89 Q 4088.82 240.18 4088.82 240.46 Q 4088.82 240.74 4088.82 241.03 Q 4088.82 241.31 4088.82 241.59 Q 4088.82 241.88 4088.82 242.16 Q 4088.82 242.44 4088.54 242.44 Q 4088.25 242.44 4088.25 243.01 Q 4088.25 243.58 4088.25 243.86 Q 4088.25 244.14 4088.25 244.43 Q 4088.25 244.71 4088.25 244.99 Q 4088.25 245.28 4088.25 245.56 Q 4088.25 245.84 4088.25 246.12 Q 4088.25 246.41 4088.25 246.69 Q 4088.25 246.97 4088.25 247.26 Q 4088.25 247.54 4088.25 247.82 Q 4088.25 248.11 4088.25 248.39 Q 4088.25 248.67 4088.25 248.96 Q 4088.25 249.24 4087.96 249.81 Q 4087.67 250.37 4087.67 250.66 Q 4087.67 250.94 4087.38 251.51 Q 4087.10 252.07 4087.10 252.64 Q 4087.10 253.21 4086.81 253.49 Q 4086.52 253.77 4086.52 254.05 Q 4086.52 254.34 4086.52 254.62 Q 4086.52 254.90 4086.52 255.19 Q 4086.52 255.47 4086.52 255.75 Q 4086.52 256.04 4086.52 256.32 Q 4086.52 256.60 4086.52 256.89 Q 4086.52 257.17 4086.52 257.74 Q 4086.52 258.30 4086.52 258.87 Q 4086.52 259.44 4086.52 259.72 Q 4086.52 260.00 4086.52 260.57 Q 4086.52 261.13 4086.52 261.42 Q 4086.52 261.70 4086.52 261.98 Q 4086.52 262.27 4086.80 262.55 Q 4087.09 262.83 4087.09 263.12 Q 4087.09 263.40 4087.09 263.68 Q 4087.09 263.97 4087.09 264.25 Q 4087.09 264.53 4087.09 264.82 Q 4087.09 265.10 4087.09 265.67 Q 4087.09 266.23 4087.09 266.52 Q 4087.09 266.80 4087.09 267.37 Q 4087.09 267.93 4087.09 268.21 Q 4087.09 268.50 4087.09 268.78 Q 4087.09 269.06 4087.09 269.35 Q 4087.09 269.63 4087.09 269.91 Q 4087.09 270.20 4087.09 270.48 Q 4087.09 270.76 4087.09 271.05 Q 4087.09 271.33 4087.09 271.61 Q 4087.09 271.90 4087.09 272.18 Q 4087.09 272.46 4087.09 272.75 Q 4087.09 273.03 4087.09 273.31 Q 4087.09 273.60 4087.09 273.88 Q 4087.09 274.16 4086.80 274.45 Q 4086.51 274.73 4086.51 275.29 Q 4086.51 275.86 4086.51 276.14 Q 4086.51 276.43 4086.79 276.99 Q 4087.08 277.56 4087.08 278.13 Q 4087.08 278.69 4087.36 278.98 Q 4087.64 279.26 4087.64 279.54 Q 4087.64 279.83 4087.64 280.11 Q 4087.64 280.39 4087.93 280.39 Q 4088.21 280.39 4088.21 280.96 Q 4088.21 281.53 4088.49 281.81 Q 4088.78 282.09 4088.78 282.37 Q 4088.78 282.66 4088.78 282.94 Q 4088.78 283.22 4088.78 283.51 Q 4088.78 283.79 4088.78 284.07 Q 4088.78 284.36 4088.78 284.64 Q 4088.78 284.92 4089.06 284.92 Q 4089.34 284.92 4089.34 285.21 Q 4089.34 285.49 4089.34 285.77 Q 4089.34 286.06 4089.34 286.34 Q 4089.34 286.62 4089.34 286.91 Q 4089.34 287.19 4089.34 287.47 Q 4089.34 287.76 4089.34 288.04 Q 4089.34 288.32 4089.34 288.89 Q 4089.34 289.46 4089.34 289.74 Q 4089.34 290.02 4089.34 290.30 Q 4089.34 290.59 4089.34 290.87 Q 4089.34 291.15 4089.34 291.44 Q 4089.34 291.72 4089.05 291.72 Q 4088.77 291.72 4088.19 292.00 Q 4087.61 292.29 4087.32 292.29 Q 4087.04 292.29 4087.04 292.57 Q 4087.04 292.85 4086.46 293.14 Q 4085.88 293.42 4085.60 293.42 Q 4085.31 293.42 4085.02 293.70 Q 4084.73 293.99 4084.44 293.99 Q 4084.16 293.99 4083.87 294.27 Q 4083.58 294.55 4083.29 294.84 Q 4083.00 295.12 4082.72 295.40 Q 4082.43 295.69 4081.85 295.97 Q 4081.28 296.25 4080.12 296.82 Q 4078.97 297.38 4078.11 297.95 Q 4077.24 298.52 4076.67 298.80 Q 4076.09 299.08 4075.51 299.65 Q 4074.94 300.22 4074.36 300.50 Q 4073.78 300.78 4073.78 301.07 Q 4073.78 301.35 4073.21 301.63 Q 4072.63 301.92 4072.06 302.20 Q 4071.48 302.48 4071.19 303.05 Q 4070.90 303.62 4070.04 303.90 Q 4069.18 304.18 4068.31 304.75 Q 4067.45 305.31 4066.58 306.16 Q 4065.72 307.01 4064.85 307.30 Q 4063.99 307.58 4063.70 307.86 Q 4063.41 308.15 4063.13 308.43 Q 4062.84 308.71 4062.55 308.71 Q 4062.26 308.71 4062.26 309.00 Q 4062.26 309.28 4061.97 309.28 Q 4061.69 309.28 4061.40 309.56 Q 4061.11 309.85 4060.82 309.85 Q 4060.53 309.85 4060.24 309.85 Q 4059.96 309.85 4059.96 310.13 Q 4059.96 310.41 4059.67 310.41 Q 4059.38 310.41 4059.09 310.41 Q 4058.80 310.41 4058.52 310.70 Q 4058.23 310.98 4057.94 311.26 Q 4057.65 311.54 4057.36 311.54 Q 4057.08 311.54 4056.79 311.83 Q 4056.50 312.11 4055.92 312.39 Q 4055.35 312.68 4055.06 312.68 Q 4054.77 312.68 4054.48 312.96 Q 4054.20 313.24 4053.91 313.24 Q 4053.62 313.24 4053.62 313.53 Q 4053.62 313.81 4053.33 313.81 Q 4053.04 313.81 4052.75 314.09 Q 4052.47 314.38 4052.18 314.38 Q 4051.89 314.38 4051.60 314.66 Q 4051.31 314.94 4050.74 315.23 Q 4050.16 315.51 4049.87 315.79 Q 4049.59 316.08 4049.01 316.36 Q 4048.43 316.64 4048.15 316.93 Q 4047.86 317.21 4047.57 317.21 Q 4047.28 317.21 4046.99 317.21 Q 4046.70 317.21 4045.84 317.49 Q 4044.98 317.78 4044.69 317.78 Q 4044.40 317.78 4043.82 318.06 Q 4043.25 318.34 4042.96 318.34 Q 4042.67 318.34 4042.10 318.34 Q 4041.52 318.34 4041.52 318.62 Q 4041.52 318.91 4041.80 318.91 Q 4042.09 318.91 4042.09 319.19 Q 4042.09 319.47 4042.37 319.47 Q 4042.65 319.47 4042.65 319.76 Q 4042.65 320.04 4042.65 320.61 Q 4042.65 321.17 4042.65 322.02 Q 4042.65 322.87 4042.65 323.72 Q 4042.65 324.57 4042.36 325.14 Q 4042.08 325.71 4042.08 326.55 Q 4042.08 327.40 4041.79 328.54 Q 4041.50 329.67 4041.21 330.52 Q 4040.92 331.37 4040.92 331.65 Q 4040.92 331.94 4040.92 332.22 Q 4040.92 332.50 4040.64 333.92 Q 4040.35 335.33 4040.35 335.62 Q 4040.35 335.90 4040.35 336.18 Q 4040.35 336.47 4040.06 336.75 Q 4039.77 337.03 4039.77 337.60 Q 4039.77 338.17 4039.48 338.73 Q 4039.20 339.30 4038.91 340.15 Q 4038.62 341.00 4038.33 341.56 Q 4038.04 342.13 4037.75 342.70 Q 4037.47 343.26 4037.18 344.11 Q 4036.89 344.96 4036.60 346.95 Q 4036.31 348.93 4036.31 349.78 Q 4036.31 350.63 4036.31 351.19 Q 4036.31 351.76 4036.03 352.33 Q 4035.74 352.89 4035.74 353.46 Q 4035.74 354.03 4035.74 354.59 Q 4035.74 355.16 4035.45 355.72 Q 4035.16 356.29 4035.16 356.86 Q 4035.16 357.42 4035.16 357.99 Q 4035.16 358.56 4034.87 358.84 Q 4034.59 359.12 4034.59 359.69 Q 4034.59 360.26 4034.59 360.82 Q 4034.59 361.39 4034.59 361.67 Q 4034.59 361.96 4034.59 362.24 Q 4034.59 362.52 4034.59 362.80 Q 4034.59 363.09 4034.87 363.09 Q 4035.15 363.09 4035.44 363.37 Q 4035.72 363.65 4036.00 363.65 Q 4036.28 363.65 4037.13 366.77 Q 4037.98 369.88 4038.55 370.73 Q 4039.12 371.58 4039.40 372.15 Q 4039.68 372.72 4039.68 373.28 Q 4039.68 373.85 4039.97 374.13 Q 4040.25 374.42 4040.25 374.98 Q 4040.25 375.55 4040.25 375.83 Q 4040.25 376.12 4040.25 376.40 Q 4040.25 376.68 4040.25 376.96 Q 4040.25 377.25 4040.25 378.10 Q 4040.25 378.95 4040.25 379.51 Q 4040.25 380.08 4040.25 380.65 Q 4040.25 381.21 4040.25 381.78 Q 4040.25 382.35 4040.25 382.63 Q 4040.25 382.91 4040.25 383.20 Q 4040.25 383.48 4040.25 384.04 Q 4040.25 384.61 4040.25 384.89 Q 4040.25 385.18 4040.25 385.46 Q 4040.25 385.74 4040.25 386.03 Q 4040.25 386.31 4040.25 386.88 Q 4040.25 387.44 4040.25 387.73 Q 4040.25 388.01 4040.25 388.29 Q 4040.25 388.58 4040.53 389.43 Q 4040.82 390.28 4040.82 390.56 Q 4040.82 390.84 4040.82 391.41 Q 4040.82 391.97 4040.82 392.26 Q 4040.82 392.54 4040.82 393.39 Q 4040.82 394.24 4040.82 394.52 Q 4040.82 394.81 4041.10 395.37 Q 4041.38 395.94 4041.38 396.22 Q 4041.38 396.51 4041.38 397.07 Q 4041.38 397.64 4041.38 397.92 Q 4041.38 398.21 4041.38 398.77 Q 4041.38 399.34 4041.67 399.62 Q 4041.95 399.90 4041.95 400.47 Q 4041.95 401.04 4041.95 401.32 Q 4041.95 401.60 4041.95 401.89 Q 4041.95 402.17 4041.95 402.74 Q 4041.95 403.30 4041.95 403.59 Q 4041.95 403.87 4041.95 404.44 Q 4041.95 405.00 4041.95 405.29 Q 4041.95 405.57 4041.95 405.85 Q 4041.95 406.13 4041.95 406.70 Q 4041.95 407.27 4041.95 407.83 Q 4041.95 408.40 4041.95 408.68 Q 4041.95 408.97 4041.95 409.82 Q 4041.95 410.67 4041.95 410.95 Q 4041.95 411.23 4041.95 412.08 Q 4041.95 412.93 4041.95 413.50 Q 4041.95 414.06 4041.95 414.63 Q 4041.95 415.20 4041.95 415.48 Q 4041.95 415.76 4041.95 416.33 Q 4041.95 416.90 4041.95 417.18 Q 4041.95 417.46 4041.95 418.31 Q 4041.95 419.16 4041.95 420.01 Q 4041.95 420.86 4041.95 421.14 Q 4041.95 421.43 4041.95 421.99 Q 4041.95 422.56 4041.95 422.84 Q 4041.95 423.13 4041.66 423.69 Q 4041.37 424.26 4041.37 424.83 Q 4041.37 425.39 4041.37 425.96 Q 4041.37 426.53 4041.37 426.81 Q 4041.37 427.09 4041.37 427.66 Q 4041.37 428.22 4041.37 428.51 Q 4041.37 428.79 4041.37 429.07 Q 4041.37 429.36 4041.37 429.64 Q 4041.37 429.92 4041.37 430.21 Q 4041.37 430.49 4041.37 430.77 Q 4041.37 431.06 4041.37 431.34 Q 4041.37 431.62 4041.37 431.91 Q 4041.37 432.19 4041.37 432.47 Q 4041.37 432.76 4041.37 433.04 Q 4041.37 433.32 4041.37 433.61 Q 4041.37 433.89 4041.37 434.46 Q 4041.37 435.02 4041.37 435.30 Q 4041.37 435.59 4041.37 435.87 Q 4041.37 436.15 4041.37 436.44 Q 4041.37 436.72 4041.37 437.00 Q 4041.37 437.29 4041.37 437.57 Q 4041.37 437.85 4041.37 438.14 Q 4041.37 438.42 4041.37 438.70 Q 4041.37 438.99 4041.37 439.27 Q 4041.37 439.55 4041.37 439.84 Q 4041.37 440.12 4041.37 440.40 Q 4041.37 440.69 4041.37 441.25 Q 4041.37 441.82 4041.37 442.10 Q 4041.37 442.38 4041.37 442.95 Q 4041.37 443.52 4041.37 444.08 Q 4041.37 444.65 4041.37 445.22 Q 4041.37 445.78 4041.08 446.35 Q 4040.80 446.92 4040.80 447.48 Q 4040.80 448.05 4040.80 448.33 Q 4040.80 448.62 4040.51 449.46 Q 4040.22 450.31 4040.22 450.60 Q 4040.22 450.88 4040.22 451.45 Q 4040.22 452.01 4040.22 452.58 Q 4040.22 453.15 4040.22 453.71 Q 4040.22 454.28 4040.22 454.56 Q 4040.22 454.85 4040.22 455.41 Q 4040.22 455.98 4040.22 456.54 Q 4040.22 457.11 4040.22 457.39 Q 4040.22 457.68 4040.22 457.96 Q 4040.22 458.24 4039.93 458.81 Q 4039.64 459.38 4039.64 459.66 Q 4039.64 459.94 4039.64 460.51 Q 4039.64 461.08 4039.36 461.64 Q 4039.07 462.21 4039.07 462.78 Q 4039.07 463.34 4039.07 463.91 Q 4039.07 464.47 4039.07 465.04 Q 4039.07 465.61 4039.07 465.89 Q 4039.07 466.17 4039.07 466.46 Q 4039.07 466.74 4039.07 467.02 Q 4039.07 467.31 4039.07 467.59 Q 4039.07 467.87 4038.78 467.87 Q 4038.49 467.87 4038.49 468.16 Q 4038.49 468.44 4038.20 468.72 Q 4037.92 469.01 4037.92 469.29 Q 4037.92 469.57 4037.92 469.86 Q 4037.92 470.14 4038.20 470.14 Q 4038.48 470.14 4038.48 470.42 Q 4038.48 470.71 4038.77 470.71 Q 4039.05 470.71 4039.05 470.99 Q 4039.05 471.27 4039.05 471.55 Q 4039.05 471.84 4039.05 472.12 Q 4039.05 472.40 4039.05 472.69 Q 4039.05 472.97 4039.33 472.97 Q 4039.62 472.97 4039.62 473.25 Q 4039.62 473.54 4039.62 473.82 Q 4039.62 474.10 4039.90 474.10 Q 4040.18 474.10 4040.18 474.39 Q 4040.18 474.67 4040.46 474.95 Q 4040.75 475.24 4040.75 475.52 Q 4040.75 475.80 4041.03 476.09 Q 4041.31 476.37 4041.60 476.65 Q 4041.88 476.94 4041.88 477.50 Q 4041.88 478.07 4042.16 478.35 Q 4042.45 478.63 4043.01 479.48 Q 4043.58 480.33 4043.86 480.90 Q 4044.15 481.47 4044.71 481.75 Q 4045.28 482.03 4045.56 482.32 Q 4045.85 482.60 4046.41 483.17 Q 4046.98 483.73 4047.26 483.73 Q 4047.54 483.73 4047.54 484.02 Q 4047.54 484.30 4047.83 484.30 Q 4048.11 484.30 4048.39 484.30 Q 4048.68 484.30 4048.68 484.58 Q 4048.68 484.87 4048.96 484.87 Q 4049.24 484.87 4049.81 485.15 Q 4050.38 485.43 4050.66 485.71 Q 4050.94 486.00 4051.51 486.28 Q 4052.08 486.56 4052.64 486.85 Q 4053.21 487.13 4053.49 487.13 Q 4053.78 487.13 4054.34 487.41 Q 4054.91 487.70 4055.19 487.70 Q 4055.47 487.70 4055.76 487.98 Q 4056.04 488.26 4056.32 488.26 Q 4056.61 488.26 4056.89 488.55 Q 4057.17 488.83 4057.46 488.83 Q 4057.74 488.83 4058.02 489.11 Q 4058.31 489.40 4059.16 489.40 Q 4060.01 489.40 4060.29 489.68 Q 4060.57 489.96 4060.86 489.96 Q 4061.14 489.96 4061.42 489.96 Q 4061.70 489.96 4061.99 490.25 Q 4062.27 490.53 4062.55 490.53 Q 4062.84 490.53 4063.12 490.53 Q 4063.40 490.53 4063.69 490.53 Q 4063.97 490.53 4063.97 490.81 Q 4063.97 491.10 4064.25 491.10 Q 4064.54 491.10 4064.82 491.38 Q 4065.10 491.66 4065.39 491.66 Q 4065.67 491.66 4066.24 491.95 Q 4066.80 492.23 4067.09 492.51 Q 4067.37 492.79 4067.65 493.08 Q 4067.94 493.36 4068.22 493.36 Q 4068.50 493.36 4068.78 493.64 Q 4069.07 493.93 4069.35 493.93 Q 4069.63 493.93 4069.92 493.93 Q 4070.20 493.93 4070.48 494.21 Q 4070.77 494.49 4071.05 494.49 Q 4071.33 494.49 4071.62 494.78 Q 4071.90 495.06 4072.18 495.06 Q 4072.47 495.06 4072.47 495.34 Q 4072.47 495.63 4072.75 495.91 Q 4073.03 496.19 4073.32 496.19 Q 4073.60 496.19 4073.88 496.76 Q 4074.17 497.33 4075.02 498.18 Q 4075.87 499.03 4076.71 499.59 Q 4077.56 500.16 4078.13 500.72 Q 4078.70 501.29 4079.55 501.86 Q 4080.40 502.42 4080.96 502.71 Q 4081.53 502.99 4082.10 503.27 Q 4082.66 503.56 4082.95 503.84 Q 4083.23 504.12 4083.51 504.41 Q 4083.79 504.69 4083.79 504.97 Q 4083.79 505.26 4084.08 505.26 Q 4084.36 505.26 4084.64 505.26 Q 4084.93 505.26 4085.21 505.26 Q 4085.49 505.26 4085.78 505.54 Q 4086.06 505.82 4086.34 505.82 Q 4086.63 505.82 4086.91 505.82 Q 4087.19 505.82 4087.19 506.11 Q 4087.19 506.39 4087.48 506.39 Q 4087.76 506.39 4088.04 506.39 Q 4088.33 506.39 4088.89 506.67 Q 4089.46 506.96 4089.74 507.24 Q 4090.03 507.52 4090.59 507.80 Q 4091.16 508.09 4091.44 508.09 Q 4091.72 508.09 4092.01 508.37 Q 4092.29 508.65 4092.57 508.65 Q 4092.86 508.65 4093.14 508.65 Q 4093.42 508.65 4093.42 508.94 Q 4093.42 509.22 4093.14 509.22 Q 4092.85 509.22 4092.85 509.50 Q 4092.85 509.79 4092.85 510.07 Q 4092.85 510.35 4092.85 510.64 Q 4092.85 510.92 4092.85 511.20 Q 4092.85 511.49 4092.85 511.77 Q 4092.85 512.05 4092.85 512.34 Q 4092.85 512.62 4093.13 512.90 Q 4093.41 513.19 4093.41 513.75 Q 4093.41 514.32 4093.41 514.60 Q 4093.41 514.88 4093.41 515.17 Q 4093.41 515.45 4093.70 516.02 Q 4093.98 516.58 4093.98 516.87 Q 4093.98 517.15 4093.98 517.72 Q 4093.98 518.28 4093.98 518.57 Q 4093.98 518.85 4094.26 519.70 Q 4094.55 520.55 4094.55 521.40 Q 4094.55 522.25 4094.83 523.10 Q 4095.11 523.95 4095.11 524.23 Q 4095.11 524.51 4095.40 524.80 Q 4095.68 525.08 4095.68 525.36 Q 4095.68 525.65 4095.68 525.93 Q 4095.68 526.21 4095.68 526.78 Q 4095.68 527.35 4095.68 527.63 Q 4095.68 527.91 4095.68 528.20 Q 4095.68 528.48 4095.68 529.04 Q 4095.68 529.61 4095.68 529.89 Q 4095.68 530.18 4095.68 530.74 Q 4095.68 531.31 4095.68 531.88 Q 4095.68 532.44 4095.68 532.73 Q 4095.68 533.01 4095.96 533.29 Q 4096.25 533.58 4096.25 533.86 Q 4096.25 534.14 4096.25 534.43 Q 4096.25 534.71 4096.25 534.99 Q 4096.25 535.28 4096.25 535.56 Q 4096.25 535.84 4096.25 536.41 Q 4096.25 536.97 4096.25 537.54 Q 4096.25 538.11 4096.25 538.67 Q 4096.25 539.24 4096.25 540.09 Q 4096.25 540.94 4096.25 541.51 Q 4096.25 542.07 4096.25 542.36 Q 4096.25 542.64 4096.25 543.21 Q 4096.25 543.77 4096.25 544.05 Q 4096.25 544.34 4096.25 544.90 Q 4096.25 545.47 4096.25 546.04 Q 4096.25 546.60 4096.25 546.89 Q 4096.25 547.17 4096.53 547.45 Q 4096.81 547.74 4096.81 548.02 Q 4096.81 548.30 4096.81 548.59 Q 4096.81 548.87 4096.81 549.15 Q 4096.81 549.44 4096.81 549.72 Q 4096.81 550.00 4096.81 550.57 Q 4096.81 551.13 4096.81 551.42 Q 4096.81 551.70 4096.81 552.27 Q 4096.81 552.83 4096.81 553.40 Q 4096.81 553.97 4096.81 554.53 Q 4096.81 555.10 4096.81 555.38 Q 4096.81 555.67 4096.81 555.95 Q 4096.81 556.23 4096.81 556.52 Q 4096.81 556.80 4096.81 557.08 Q 4096.81 557.37 4096.81 557.65 Q 4096.81 557.93 4096.81 558.21 Q 4096.81 558.50 4096.81 558.78 Q 4096.81 559.06 4096.81 559.35 Q 4096.81 559.63 4096.81 559.91 Q 4096.81 560.20 4096.81 560.76 Q 4096.81 561.33 4096.52 561.61 Q 4096.24 561.90 4096.24 562.18 Q 4096.24 562.46 4096.24 562.75 Q 4096.24 563.03 4096.24 563.31 Q 4096.24 563.60 4095.95 563.88 Q 4095.66 564.16 4095.37 564.45 Q 4095.08 564.73 4095.08 565.01 Q 4095.08 565.29 4095.08 565.58 Q 4095.08 565.86 4095.08 566.14 Q 4095.08 566.43 4095.08 566.71 Q 4095.08 566.99 4095.37 566.99 Q 4095.65 566.99 4095.65 567.56 Q 4095.65 568.13 4095.65 568.41 Q 4095.65 568.69 4095.65 568.98 Q 4095.65 569.26 4095.65 569.54 Q 4095.65 569.83 4095.65 570.11 Q 4095.65 570.39 4095.36 570.39 Q 4095.07 570.39 4095.07 570.10 Q 4095.07 569.82 4094.79 569.82 Q 4094.50 569.82 4094.21 569.53 Q 4093.92 569.24 4093.63 569.24 Q 4093.35 569.24 4093.06 568.95 Q 4092.77 568.66 4092.48 568.38 Q 4092.19 568.09 4091.91 568.09 Q 4091.62 568.09 4091.33 567.80 Q 4091.04 567.51 4090.75 567.22 Q 4090.46 566.94 4090.18 566.65 Q 4089.89 566.36 4089.60 565.78 Q 4089.31 565.21 4089.02 565.21 Q 4088.74 565.21 4088.74 564.92 Q 4088.74 564.63 4088.16 564.34 Q 4087.58 564.05 4087.58 563.77 Q 4087.58 563.48 4087.30 563.19 Q 4087.01 562.90 4086.43 562.61 Q 4085.86 562.33 4085.57 561.75 Q 4085.28 561.17 4084.70 560.89 Q 4084.13 560.60 4083.84 560.02 Q 4083.55 559.45 4082.97 559.16 Q 4082.40 558.87 4081.82 558.29 Q 4081.25 557.72 4080.96 557.14 Q 4080.67 556.56 4080.38 556.28 Q 4080.09 555.99 4079.52 555.41 Q 4078.94 554.84 4078.65 554.55 Q 4078.37 554.26 4078.08 553.97 Q 4077.79 553.68 4077.79 553.40 Q 4077.79 553.11 4077.50 552.82 Q 4077.21 552.53 4076.92 552.53 Q 4076.64 552.53 4076.35 552.24 Q 4076.06 551.96 4075.77 551.96 Q 4075.48 551.96 4075.20 551.67 Q 4074.91 551.38 4074.62 551.09 Q 4074.33 550.80 4074.04 550.51 Q 4073.76 550.23 4073.47 549.94 Q 4073.18 549.65 4072.60 549.36 Q 4072.03 549.07 4071.45 548.79 Q 4070.87 548.50 4070.59 548.21 Q 4070.30 547.92 4070.01 547.92 Q 4069.72 547.92 4069.72 547.63 Q 4069.72 547.35 4069.43 547.35 Q 4069.15 547.35 4068.86 547.06 Q 4068.57 546.77 4068.28 546.77 Q 4067.99 546.77 4067.71 546.77 Q 4067.42 546.77 4067.13 546.48 Q 4066.84 546.19 4066.55 546.19 Q 4066.27 546.19 4065.98 546.19 Q 4065.69 546.19 4065.69 545.91 Q 4065.69 545.62 4065.40 545.62 Q 4065.11 545.62 4064.82 545.62 Q 4064.54 545.62 4064.54 545.33 Q 4064.54 545.04 4064.25 545.04 Q 4063.96 545.04 4063.67 544.75 Q 4063.38 544.46 4063.10 544.18 Q 4062.81 543.89 4062.23 543.60 Q 4061.66 543.31 4061.37 543.02 Q 4061.08 542.74 4060.50 542.74 Q 4059.93 542.74 4059.35 542.45 Q 4058.78 542.16 4058.49 541.87 Q 4058.20 541.58 4057.91 541.58 Q 4057.62 541.58 4057.62 541.30 Q 4057.62 541.01 4057.33 541.01 Q 4057.05 541.01 4056.76 540.72 Q 4056.47 540.43 4055.89 540.14 Q 4055.32 539.86 4055.03 539.86 Q 4054.74 539.86 4054.45 539.57 Q 4054.17 539.28 4053.59 539.28 Q 4053.01 539.28 4052.44 538.99 Q 4051.86 538.70 4051.86 538.42 Q 4051.86 538.13 4051.57 538.13 Q 4051.28 538.13 4051.28 537.84 Q 4051.28 537.55 4051.00 537.55 Q 4050.71 537.55 4050.13 537.26 Q 4049.56 536.97 4048.98 536.40 Q 4048.40 535.82 4047.83 535.82 Q 4047.25 535.82 4046.68 535.53 Q 4046.10 535.25 4045.52 534.96 Q 4044.95 534.67 4044.37 534.38 Q 4043.79 534.09 4043.22 533.81 Q 4042.64 533.52 4042.35 533.52 Q 4042.07 533.52 4041.78 533.23 Q 4041.49 532.94 4041.20 532.94 Q 4040.91 532.94 4040.91 532.65 Q 4040.91 532.37 4040.63 532.37 Q 4040.34 532.37 4040.05 532.08 Q 4039.76 531.79 4039.47 531.79 Q 4039.19 531.79 4039.19 531.50 Q 4039.19 531.21 4038.90 531.21 Q 4038.61 531.21 4038.32 530.92 Q 4038.03 530.64 4037.74 530.64 Q 4037.46 530.64 4037.17 530.35 Q 4036.88 530.06 4036.59 530.06 Q 4036.30 530.06 4036.30 529.77 Q 4036.30 529.48 4036.02 529.48 Q 4035.73 529.48 4035.44 529.48 Q 4035.15 529.48 4034.86 529.20 Q 4034.58 528.91 4034.00 528.62 Q 4033.42 528.33 4033.14 528.04 Q 4032.85 527.76 4032.56 527.76 Q 4032.27 527.76 4031.98 527.47 Q 4031.70 527.18 4030.83 526.89 Q 4029.97 526.60 4029.39 526.03 Q 4028.81 525.45 4027.95 525.16 Q 4027.09 524.87 4026.51 524.87 Q 4025.93 524.87 4025.65 524.59 Q 4025.36 524.30 4025.07 524.30 Q 4024.78 524.30 4024.49 524.01 Q 4024.20 523.72 4023.92 523.43 Q 4023.63 523.15 4023.05 522.86 Q 4022.48 522.57 4021.61 521.99 Q 4020.75 521.42 4020.17 521.13 Q 4019.60 520.84 4018.73 520.55 Q 4017.87 520.27 4017.29 519.98 Q 4016.71 519.69 4016.43 519.69 Q 4016.14 519.69 4015.85 519.40 Q 4015.56 519.11 4015.27 519.11 Q 4014.99 519.11 4014.99 518.83 Q 4014.99 518.54 4014.70 518.54 Q 4014.41 518.54 4013.83 518.25 Q 4013.26 517.96 4012.97 517.67 Q 4012.68 517.38 4012.11 517.38 Q 4011.53 517.38 4011.24 517.10 Q 4010.95 516.81 4010.66 516.52 Q 4010.38 516.23 4010.09 515.94 Q 4009.80 515.66 4009.22 515.37 Q 4008.65 515.08 4008.36 515.08 Q 4008.07 515.08 4007.78 514.79 Q 4007.50 514.50 4007.21 514.50 Q 4006.92 514.50 4006.63 514.22 Q 4006.34 513.93 4006.06 513.93 Q 4005.77 513.93 4005.48 513.93 Q 4005.19 513.93 4004.90 513.93 Q 4004.62 513.93 4004.04 513.64 Q 4003.46 513.35 4003.17 513.35 Q 4002.89 513.35 4002.60 513.06 Q 4002.31 512.78 4002.02 512.78 Q 4001.73 512.78 4001.45 512.78 Q 4001.16 512.78 4001.16 512.49 Q 4001.16 512.20 4000.87 512.20 Q 4000.58 512.20 4000.29 511.91 Q 4000.01 511.62 3999.72 511.62 Q 3999.43 511.62 3999.14 511.33 Q 3998.85 511.05 3998.28 510.76 Q 3997.70 510.47 3997.12 510.47 Q 3996.55 510.47 3996.26 510.18 Q 3995.97 509.89 3995.68 509.89 Q 3995.40 509.89 3995.40 509.61 Q 3995.40 509.32 3995.11 509.32 Q 3994.82 509.32 3994.53 509.32 Q 3994.24 509.32 3993.96 509.32 Q 3993.67 509.32 3993.67 509.03 Q 3993.67 508.74 3993.38 508.74 Q 3993.09 508.74 3992.80 508.74 Q 3992.52 508.74 3992.52 508.45 Q 3992.52 508.17 3992.23 508.17 Q 3991.94 508.17 3991.65 508.17 Q 3991.36 508.17 3991.07 507.88 Q 3990.79 507.59 3990.50 507.30 Q 3990.21 507.01 3989.92 507.01 Q 3989.63 507.01 3989.35 506.73 Q 3989.06 506.44 3988.77 506.15 Q 3988.48 505.86 3988.19 505.57 Q 3987.91 505.29 3987.62 505.29 Q 3987.33 505.29 3987.33 505.00 Q 3987.33 504.71 3987.61 504.42 Q 3987.90 504.13 3987.90 503.84 Q 3987.90 503.56 3987.90 503.27 Q 3987.90 502.98 3987.90 502.40 Q 3987.90 501.83 3987.61 501.25 Q 3987.32 500.68 3987.03 499.81 Q 3986.74 498.95 3986.46 498.37 Q 3986.17 497.79 3986.17 496.93 Q 3986.17 496.07 3986.17 495.49 Q 3986.17 494.91 3985.88 494.34 Q 3985.59 493.76 3985.59 493.19 Q 3985.59 492.61 3985.59 492.03 Q 3985.59 491.46 3985.59 490.88 Q 3985.59 490.30 3985.59 490.02 Q 3985.59 489.73 3985.59 489.44 Q 3985.59 489.15 3985.59 488.58 Q 3985.59 488.00 3985.59 487.71 Q 3985.59 487.42 3985.59 487.14 Q 3985.59 486.85 3985.59 486.56 Q 3985.59 486.27 3985.59 485.98 Q 3985.59 485.70 3985.59 485.12 Q 3985.59 484.54 3985.59 484.25 Q 3985.59 483.97 3985.59 483.39 Q 3985.59 482.81 3985.59 481.95 Q 3985.59 481.09 3985.59 480.51 Q 3985.59 479.93 3985.59 479.65 Q 3985.59 479.36 3985.59 478.78 Q 3985.59 478.21 3985.59 477.63 Q 3985.59 477.05 3985.59 476.76 Q 3985.59 476.48 3985.59 476.19 Q 3985.59 475.90 3985.59 475.61 Q 3985.59 475.32 3985.59 475.04 Q 3985.59 474.75 3985.87 474.46 Q 3986.16 474.17 3986.16 473.88 Q 3986.16 473.60 3986.16 472.73 Q 3986.16 471.87 3986.44 471.00 Q 3986.72 470.14 3986.72 469.85 Q 3986.72 469.56 3987.01 468.70 Q 3987.29 467.83 3987.29 467.55 Q 3987.29 467.26 3987.29 466.97 Q 3987.29 466.68 3987.29 466.11 Q 3987.29 465.53 3987.29 465.24 Q 3987.29 464.95 3987.29 464.67 Q 3987.29 464.38 3987.29 464.09 Q 3987.29 463.80 3987.29 463.51 Q 3987.29 463.22 3987.29 462.94 Q 3987.29 462.65 3987.29 462.07 Q 3987.29 461.50 3987.29 461.21 Q 3987.29 460.92 3987.57 460.63 Q 3987.86 460.34 3987.86 459.77 Q 3987.86 459.19 3987.86 458.90 Q 3987.86 458.62 3987.86 458.33 Q 3987.86 458.04 3987.86 457.46 Q 3987.86 456.89 3987.86 456.60 Q 3987.86 456.31 3988.14 456.02 Q 3988.42 455.73 3988.42 455.45 Q 3988.42 455.16 3988.42 454.87 Q 3988.42 454.58 3988.42 454.29 Q 3988.42 454.01 3988.42 453.72 Q 3988.42 453.43 3988.42 453.14 Q 3988.42 452.85 3988.42 452.57 Q 3988.42 452.28 3988.42 451.70 Q 3988.42 451.12 3988.42 450.84 Q 3988.42 450.55 3988.42 450.26 Q 3988.42 449.97 3988.42 449.40 Q 3988.42 448.82 3988.42 448.24 Q 3988.42 447.67 3988.42 447.09 Q 3988.42 446.52 3988.42 445.94 Q 3988.42 445.36 3988.42 444.50 Q 3988.42 443.63 3988.42 443.35 Q 3988.42 443.06 3988.42 442.48 Q 3988.42 441.91 3988.42 441.62 Q 3988.42 441.33 3988.42 441.04 Q 3988.42 440.75 3988.42 440.47 Q 3988.42 440.18 3988.42 439.89 Q 3988.42 439.60 3988.42 439.31 Q 3988.42 439.03 3988.42 438.74 Q 3988.42 438.45 3988.42 438.16 Q 3988.42 437.87 3988.42 437.58 Q 3988.42 437.30 3988.42 437.01 Q 3988.42 436.72 3988.42 436.14 Q 3988.42 435.57 3988.42 435.28 Q 3988.42 434.99 3988.42 434.13 Q 3988.42 433.26 3988.42 432.69 Q 3988.42 432.11 3988.42 431.54 Q 3988.42 430.96 3988.42 430.67 Q 3988.42 430.38 3988.42 429.81 Q 3988.42 429.23 3988.42 428.65 Q 3988.42 428.08 3988.42 427.79 Q 3988.42 427.50 3988.42 427.21 Q 3988.42 426.93 3988.42 426.35 Q 3988.42 425.77 3988.42 425.20 Q 3988.42 424.62 3988.42 424.04 Q 3988.42 423.47 3988.42 423.18 Q 3988.42 422.89 3988.42 422.60 Q 3988.42 422.32 3988.42 421.74 Q 3988.42 421.16 3988.42 420.59 Q 3988.42 420.01 3988.42 419.72 Q 3988.42 419.44 3988.42 418.86 Q 3988.42 418.28 3988.42 417.71 Q 3988.42 417.13 3988.42 416.84 Q 3988.42 416.55 3988.42 415.98 Q 3988.42 415.40 3988.42 415.11 Q 3988.42 414.83 3988.42 414.54 Q 3988.42 414.25 3988.42 413.67 Q 3988.42 413.10 3988.42 412.81 Q 3988.42 412.52 3988.42 411.95 Q 3988.42 411.37 3988.42 410.79 Q 3988.42 410.22 3988.42 409.35 Q 3988.42 408.49 3988.42 407.91 Q 3988.42 407.34 3988.42 406.76 Q 3988.42 406.18 3988.42 405.61 Q 3988.42 405.03 3988.42 404.46 Q 3988.42 403.88 3988.42 403.30 Q 3988.42 402.73 3988.42 402.44 Q 3988.42 402.15 3988.42 401.57 Q 3988.42 401.00 3988.42 400.71 Q 3988.42 400.42 3988.42 400.13 Q 3988.42 399.85 3988.42 399.56 Q 3988.42 399.27 3988.42 398.98 Q 3988.42 398.69 3988.42 398.12 Q 3988.42 397.54 3988.42 397.25 Q 3988.42 396.96 3988.42 396.10 Q 3988.42 395.24 3988.42 394.95 Q 3988.42 394.66 3988.71 393.80 Q 3988.99 392.93 3988.99 392.07 Q 3988.99 391.20 3988.99 390.63 Q 3988.99 390.05 3989.27 389.47 Q 3989.56 388.90 3989.56 388.03 Q 3989.56 387.17 3989.56 386.59 Q 3989.56 386.02 3989.56 385.73 Q 3989.56 385.44 3989.56 384.87 Q 3989.56 384.29 3989.56 384.00 Q 3989.56 383.71 3989.56 383.42 Q 3989.56 383.14 3989.56 382.56 Q 3989.56 381.98 3989.56 381.70 Q 3989.56 381.41 3989.56 380.83 Q 3989.56 380.26 3989.56 379.68 Q 3989.56 379.10 3989.56 378.53 Q 3989.56 377.95 3989.56 377.37 Q 3989.56 376.80 3989.56 376.22 Q 3989.56 375.65 3989.56 374.78 Q 3989.56 373.92 3989.56 373.34 Q 3989.56 372.77 3989.84 372.19 Q 3990.12 371.61 3990.12 371.04 Q 3990.12 370.46 3990.12 369.88 Q 3990.12 369.31 3990.12 368.73 Q 3990.12 368.16 3990.12 367.58 Q 3990.12 367.00 3990.12 366.72 Q 3990.12 366.43 3990.12 365.28 Q 3990.12 364.12 3989.83 363.55 Q 3989.55 362.97 3989.55 362.39 Q 3989.55 361.82 3989.55 361.24 Q 3989.55 360.67 3989.55 359.80 Q 3989.55 358.94 3989.55 358.36 Q 3989.55 357.79 3989.55 357.21 Q 3989.55 356.63 3989.55 356.06 Q 3989.55 355.48 3989.55 354.90 Q 3989.55 354.33 3989.55 354.04 Q 3989.55 353.75 3989.55 353.18 Q 3989.55 352.60 3989.55 352.31 Q 3989.55 352.02 3989.55 351.74 Q 3989.55 351.45 3989.55 351.16 Q 3989.55 350.87 3989.55 350.58 Q 3989.55 350.29 3989.55 350.01 Q 3989.55 349.72 3989.55 349.43 Q 3989.55 349.14 3989.55 348.85 Q 3989.55 348.57 3989.55 348.28 Q 3989.55 347.99 3989.26 347.70 Q 3988.97 347.41 3988.97 346.84 Q 3988.97 346.26 3988.97 345.97 Q 3988.97 345.69 3988.97 344.82 Q 3988.97 343.96 3988.97 343.67 Q 3988.97 343.38 3988.97 343.09 Q 3988.97 342.80 3988.97 342.23 Q 3988.97 341.65 3988.97 341.08 Q 3988.97 340.50 3988.68 340.50 Q 3988.39 340.50 3988.39 340.21 Q 3988.39 339.92 3988.39 339.35 Q 3988.39 338.77 3988.39 338.20 Q 3988.39 337.62 3988.39 336.47 Q 3988.39 335.31 3988.11 334.74 Q 3987.82 334.16 3987.82 333.87 Q 3987.82 333.59 3987.82 333.30 Q 3987.82 333.01 3987.82 332.43 Q 3987.82 331.86 3987.82 331.28 Q 3987.82 330.71 3987.82 330.42 Q 3987.82 330.13 3987.82 329.84 Q 3987.82 329.55 3987.82 328.98 Q 3987.82 328.40 3987.82 328.11 Q 3987.82 327.82 3987.82 327.25 Q 3987.82 326.67 3987.82 326.38 Q 3987.82 326.10 3987.82 325.81 Q 3987.82 325.52 3987.82 325.23 Q 3987.82 324.94 3987.53 324.37 Q 3987.24 323.79 3987.24 323.50 Q 3987.24 323.21 3987.24 322.93 Q 3987.24 322.64 3987.24 322.35 Q 3987.24 322.06 3987.24 321.77 Q 3987.24 321.49 3987.24 321.20 Q 3987.24 320.91 3987.24 320.62 Q 3987.24 320.33 3987.24 320.05 Q 3987.24 319.76 3986.95 319.76 Q 3986.67 319.76 3986.67 319.47 Q 3986.67 319.18 3986.67 318.89 Q 3986.67 318.61 3986.67 318.03 Q 3986.67 317.45 3986.67 317.17 Q 3986.67 316.88 3986.67 316.59 Q 3986.67 316.30 3986.67 316.01 Q 3986.67 315.72 3986.67 315.15 Q 3986.67 314.57 3986.67 314.00 Q 3986.67 313.42 3986.67 313.13 Q 3986.67 312.84 3986.67 312.27 Q 3986.67 311.69 3986.38 311.12 Q 3986.09 310.54 3986.09 309.67 Q 3986.09 308.81 3986.09 308.52 Q 3986.09 308.23 3986.09 307.95 Q 3986.09 307.66 3986.09 307.37 Q 3986.09 307.08 3986.09 306.79 Q 3986.09 306.51 3986.09 306.22 Q 3986.09 305.93 3986.09 305.64 Q 3986.09 305.35 3986.09 305.07 Q 3986.09 304.78 3986.09 304.49 Q 3986.09 304.20 3986.09 303.91 Q 3986.09 303.62 3986.09 303.34 Q 3986.09 303.05 3986.09 302.76 Q 3986.09 302.47 3986.09 302.18 Q 3986.09 301.90 3986.09 301.61 Q 3986.09 301.32 3986.09 301.03 Q 3986.09 300.74 3986.09 300.46 Q 3986.09 300.17 3986.09 299.88 Q 3986.09 299.59 3986.09 299.30 Q 3986.09 299.02 3986.09 298.73 Q 3986.09 298.44 3986.09 298.15 Q 3986.09 297.86 3986.09 297.58 Q 3986.09 297.29 3986.09 297.00 Q 3986.09 296.71 3986.09 296.13 Q 3986.09 295.56 3986.09 295.27 Q 3986.09 294.98 3986.37 294.69 Q 3986.66 294.41 3986.66 294.12 Q 3986.66 293.83 3986.66 293.54 Q 3986.66 293.25 3986.66 292.97 Q 3986.66 292.68 3986.66 292.39 Q 3986.66 292.10 3986.94 291.81 Q 3987.22 291.53 3987.51 290.95 Q 3987.79 290.37 3988.07 290.08 Q 3988.36 289.80 3988.64 289.80 Q 3988.92 289.80 3988.92 289.22 Q 3988.92 288.64 3989.20 288.36 Q 3989.49 288.07 3989.77 288.07 Q 3990.05 288.07 3990.34 287.49 Q 3990.62 286.92 3990.90 286.63 Q 3991.19 286.34 3992.32 285.48 Q 3993.45 284.61 3994.02 284.04 Q 3994.59 283.46 3995.15 282.88 Q 3995.72 282.31 3996.28 282.02 Q 3996.85 281.73 3997.42 281.44 Q 3997.98 281.15 3997.98 280.87 Q 3997.98 280.58 3998.55 280.29 Q 3999.12 280.00 3999.40 280.00 Q 3999.68 280.00 3999.97 279.71 Q 4000.25 279.43 4000.53 279.14 Q 4000.82 278.85 4001.38 278.56 Q 4001.95 278.27 4002.52 277.99 Q 4003.08 277.70 4003.65 277.41 Q 4004.21 277.12 4004.78 276.83 Q 4005.35 276.54 4005.63 276.54 Q 4005.91 276.54 4006.76 275.97 Q 4007.61 275.39 4007.90 275.39 Q 4008.18 275.39 4008.75 275.10 Q 4009.31 274.82 4009.60 274.82 Q 4009.88 274.82 4010.16 274.82 Q 4010.45 274.82 4010.45 274.53 Q 4010.45 274.24 4011.01 273.95 Q 4011.58 273.66 4012.14 273.38 Q 4012.71 273.09 4013.28 272.80 Q 4013.84 272.51 4014.98 271.94 Q 4016.11 271.36 4017.24 270.78 Q 4018.37 270.21 4019.51 269.63 Q 4020.64 269.05 4021.77 268.48 Q 4022.91 267.90 4023.47 267.61 Q 4024.04 267.33 4025.17 266.75 Q 4026.30 266.17 4026.87 265.89 Q 4027.44 265.60 4028.00 265.31 Q 4028.57 265.02 4028.85 265.02 Q 4029.14 265.02 4029.14 264.73 Q 4029.14 264.45 4029.99 264.16 Q 4030.84 263.87 4031.40 263.58 Q 4031.97 263.29 4032.53 263.00 Q 4033.10 262.72 4034.23 262.14 Q 4035.37 261.56 4036.50 260.99 Q 4037.63 260.41 4037.92 260.41 Q 4038.20 260.41 4038.77 260.12 Q 4039.33 259.84 4039.90 259.55 Q 4040.46 259.26 4040.75 258.97 Q 4041.03 258.68 4041.60 258.68 Q 4042.16 258.68 4042.73 258.40 Q 4043.30 258.11 4043.86 257.53 Q 4044.43 256.96 4045.28 256.67 Q 4046.13 256.38 4047.26 255.80 Q 4048.39 255.23 4049.24 254.65 Q 4050.09 254.07 4050.94 253.79 Q 4051.79 253.50 4052.64 252.92 Q 4053.49 252.35 4054.06 252.06 Q 4054.62 251.77 4054.91 251.77 Q 4055.19 251.77 4055.47 251.77 Q 4055.76 251.77 4056.04 251.48 Q 4056.32 251.19 4056.61 250.91 Q 4056.89 250.62 4057.46 250.33 Q 4058.02 250.04 4058.59 249.75 Q 4059.16 249.46 4060.01 248.89 Q 4060.86 248.31 4061.70 248.02 Q 4062.55 247.74 4063.40 247.45 Q 4064.25 247.16 4064.82 246.87 Q 4065.39 246.58 4065.67 246.30 Q 4065.95 246.01 4066.24 245.72 Q 4066.52 245.43 4066.80 245.43 Q 4067.09 245.43 4067.65 245.14 Q 4068.22 244.86 4068.78 244.57 Q 4069.35 244.28 4069.92 243.99 Q 4070.48 243.70 4071.33 243.42 Q 4072.18 243.13 4072.47 242.84 Q 4072.75 242.55 4073.88 242.26 Q 4075.02 241.97 4075.58 241.69 Q 4076.15 241.40 4076.43 241.40 Q 4076.71 241.40 4076.71 241.11 Q 4076.71 240.82 4077.00 240.82 Q 4077.28 240.82 4077.28 240.53 Q 4077.28 240.25 4077.56 240.25 Q 4077.85 240.25 4078.70 239.67 Q 4079.55 239.09 4080.11 238.81 Q 4080.68 238.52 4081.53 238.23 Q 4082.38 237.94 4082.66 237.94 Q 4082.95 237.94 4083.79 237.37 Q 4084.64 236.79 4084.93 236.79 Q 4085.21 236.79 4085.21 236.50 Q 4085.21 236.21 4085.49 236.21 Q 4085.78 236.21 4086.06 235.92 Q 4086.34 235.64 4086.63 235.35 Q 4086.91 235.06 4087.19 234.77 Q 4087.48 234.48 4087.76 234.20 Q 4088.04 233.91 4088.33 233.91 Q 4088.61 233.91 4089.00 232.79 L 4089.40 231.68 Z" fill="#fabfba" stroke="#fabfba" stroke-width="2" stroke-linecap="round" stroke-linejoin="round"/>
  <path d="M 4257.59 229.02 Q 4258.16 229.02 4258.44 229.02 Q 4258.73 229.02 4258.73 229.30 Q 4258.73 229.58 4258.73 229.87 Q 4258.73 230.15 4258.73 230.43 Q 4258.73 230.71 4259.01 231.28 Q 4259.29 231.85 4259.29 232.41 Q 4259.29 232.98 4259.29 233.83 Q 4259.29 234.68 4259.29 235.25 Q 4259.29 235.81 4259.29 236.10 Q 4259.29 236.38 4259.29 236.66 Q 4259.29 236.95 4259.29 237.23 Q 4259.29 237.51 4259.29 237.79 Q 4259.29 238.08 4259.29 238.36 Q 4259.29 238.64 4259.29 238.93 Q 4259.29 239.21 4259.29 239.49 Q 4259.29 239.78 4259.29 240.91 Q 4259.29 242.04 4259.29 242.61 Q 4259.29 243.18 4259.29 243.74 Q 4259.29 244.31 4259.29 244.87 Q 4259.29 245.44 4259.29 246.01 Q 4259.29 246.57 4259.29 246.86 Q 4259.29 247.14 4259.00 247.71 Q 4258.72 248.27 4258.72 248.56 Q 4258.72 248.84 4258.72 249.12 Q 4258.72 249.41 4258.72 249.69 Q 4258.72 249.97 4258.72 250.26 Q 4258.72 250.54 4258.72 250.82 Q 4258.72 251.11 4258.72 251.39 Q 4258.72 251.67 4258.72 252.24 Q 4258.72 252.80 4258.72 253.09 Q 4258.72 253.37 4258.72 253.65 Q 4258.72 253.94 4258.72 254.79 Q 4258.72 255.64 4258.72 255.92 Q 4258.72 256.20 4258.72 256.77 Q 4258.72 257.34 4258.43 257.90 Q 4258.14 258.47 4258.14 259.04 Q 4258.14 259.60 4257.85 260.17 Q 4257.56 260.73 4257.56 261.02 Q 4257.56 261.30 4257.56 261.58 Q 4257.56 261.87 4257.56 262.15 Q 4257.56 262.43 4257.56 262.72 Q 4257.56 263.00 4257.56 263.28 Q 4257.56 263.57 4257.56 263.85 Q 4257.56 264.13 4257.56 264.42 Q 4257.56 264.70 4257.56 264.98 Q 4257.56 265.27 4257.56 265.83 Q 4257.56 266.40 4257.28 266.68 Q 4256.99 266.96 4256.99 267.53 Q 4256.99 268.10 4256.70 268.66 Q 4256.41 269.23 4256.41 269.51 Q 4256.41 269.80 4256.41 270.08 Q 4256.41 270.36 4256.41 270.65 Q 4256.41 270.93 4256.41 271.21 Q 4256.41 271.50 4256.41 271.78 Q 4256.41 272.06 4256.41 272.63 Q 4256.41 273.20 4256.41 273.76 Q 4256.41 274.33 4256.12 274.89 Q 4255.84 275.46 4255.84 276.03 Q 4255.84 276.59 4255.84 277.44 Q 4255.84 278.29 4255.55 278.86 Q 4255.26 279.43 4255.26 279.71 Q 4255.26 279.99 4255.26 280.28 Q 4255.26 280.56 4255.26 280.84 Q 4255.26 281.12 4255.26 281.41 Q 4255.26 281.69 4255.26 281.97 Q 4255.26 282.26 4255.54 282.82 Q 4255.83 283.39 4255.83 283.67 Q 4255.83 283.96 4255.83 284.52 Q 4255.83 285.09 4255.83 285.37 Q 4255.83 285.66 4255.83 286.51 Q 4255.83 287.36 4255.83 287.64 Q 4255.83 287.92 4255.83 288.77 Q 4255.83 289.62 4255.83 289.90 Q 4255.83 290.19 4255.83 290.75 Q 4255.83 291.32 4256.11 291.32 Q 4256.39 291.32 4256.68 291.32 Q 4256.96 291.32 4256.96 291.60 Q 4256.96 291.89 4257.24 291.89 Q 4257.53 291.89 4257.81 292.17 Q 4258.09 292.45 4258.37 292.74 Q 4258.66 293.02 4258.94 293.30 Q 4259.22 293.59 4259.51 293.87 Q 4259.79 294.15 4259.79 294.44 Q 4259.79 294.72 4260.07 294.72 Q 4260.36 294.72 4260.64 295.00 Q 4260.92 295.29 4261.21 295.57 Q 4261.49 295.85 4261.77 296.13 Q 4262.06 296.42 4262.34 296.42 Q 4262.62 296.42 4263.19 296.98 Q 4263.76 297.55 4264.32 298.12 Q 4264.89 298.68 4265.45 298.97 Q 4266.02 299.25 4266.59 299.82 Q 4267.15 300.38 4267.72 300.38 Q 4268.29 300.38 4268.85 300.95 Q 4269.42 301.52 4269.70 301.52 Q 4269.99 301.52 4270.27 301.80 Q 4270.55 302.08 4270.55 302.37 Q 4270.55 302.65 4270.84 302.65 Q 4271.12 302.65 4271.40 302.93 Q 4271.69 303.21 4271.97 303.50 Q 4272.25 303.78 4272.53 304.35 Q 4272.82 304.91 4273.38 305.48 Q 4273.95 306.05 4274.52 306.33 Q 4275.08 306.61 4275.37 306.90 Q 4275.65 307.18 4275.93 307.18 Q 4276.22 307.18 4276.50 307.46 Q 4276.78 307.75 4277.07 308.03 Q 4277.35 308.31 4277.63 308.31 Q 4277.92 308.31 4277.92 308.60 Q 4277.92 308.88 4278.20 308.88 Q 4278.48 308.88 4278.77 309.16 Q 4279.05 309.45 4279.33 309.45 Q 4279.62 309.45 4279.90 309.73 Q 4280.18 310.01 4280.46 310.01 Q 4280.75 310.01 4280.75 310.29 Q 4280.75 310.58 4281.03 310.58 Q 4281.31 310.58 4281.60 310.58 Q 4281.88 310.58 4282.16 310.58 Q 4282.45 310.58 4282.73 310.86 Q 4283.01 311.14 4283.30 311.14 Q 4283.58 311.14 4284.15 311.14 Q 4284.71 311.14 4285.00 311.43 Q 4285.28 311.71 4285.56 311.71 Q 4285.85 311.71 4285.85 311.99 Q 4285.85 312.28 4286.13 312.28 Q 4286.41 312.28 4286.70 312.28 Q 4286.98 312.28 4287.26 312.56 Q 4287.54 312.84 4287.83 312.84 Q 4288.11 312.84 4288.39 313.13 Q 4288.68 313.41 4288.96 313.41 Q 4289.24 313.41 4289.53 313.69 Q 4289.81 313.98 4290.09 313.98 Q 4290.38 313.98 4290.38 314.26 Q 4290.38 314.54 4290.66 314.54 Q 4290.94 314.54 4291.23 314.83 Q 4291.51 315.11 4291.79 315.39 Q 4292.08 315.68 4292.64 315.96 Q 4293.21 316.24 4293.49 316.24 Q 4293.78 316.24 4294.06 316.24 Q 4294.34 316.24 4294.62 316.53 Q 4294.91 316.81 4295.19 316.81 Q 4295.47 316.81 4295.76 316.81 Q 4296.04 316.81 4296.04 317.09 Q 4296.04 317.37 4296.32 317.37 Q 4296.61 317.37 4296.89 317.37 Q 4297.17 317.37 4297.46 317.66 Q 4297.74 317.94 4298.02 317.94 Q 4298.31 317.94 4298.59 317.94 Q 4298.87 317.94 4298.87 318.22 Q 4298.87 318.51 4299.16 318.51 Q 4299.44 318.51 4299.72 318.51 Q 4300.01 318.51 4300.29 318.51 Q 4300.57 318.51 4300.57 318.79 Q 4300.57 319.07 4300.57 319.36 Q 4300.57 319.64 4300.86 319.92 Q 4301.14 320.21 4301.14 320.49 Q 4301.14 320.77 4301.14 321.06 Q 4301.14 321.34 4301.14 321.62 Q 4301.14 321.91 4301.14 322.19 Q 4301.14 322.47 4301.14 322.76 Q 4301.14 323.04 4301.14 323.32 Q 4301.14 323.61 4301.14 323.89 Q 4301.14 324.17 4301.14 324.46 Q 4301.14 324.74 4301.14 325.02 Q 4301.14 325.30 4301.14 325.59 Q 4301.14 325.87 4301.14 326.44 Q 4301.14 327.00 4301.14 327.57 Q 4301.14 328.14 4301.42 328.42 Q 4301.70 328.70 4301.70 328.99 Q 4301.70 329.27 4301.70 329.55 Q 4301.70 329.84 4301.70 330.12 Q 4301.70 330.40 4301.70 330.69 Q 4301.70 330.97 4301.70 331.25 Q 4301.70 331.54 4301.70 332.10 Q 4301.70 332.67 4301.70 333.23 Q 4301.70 333.80 4301.70 334.08 Q 4301.70 334.37 4301.42 335.22 Q 4301.13 336.07 4301.13 336.35 Q 4301.13 336.63 4301.13 337.20 Q 4301.13 337.77 4301.13 338.05 Q 4301.13 338.33 4301.13 338.62 Q 4301.13 338.90 4300.84 339.18 Q 4300.55 339.46 4300.55 339.75 Q 4300.55 340.03 4300.55 340.31 Q 4300.55 340.60 4300.55 340.88 Q 4300.55 341.16 4300.55 341.45 Q 4300.55 341.73 4300.55 342.01 Q 4300.55 342.30 4300.55 342.58 Q 4300.55 342.86 4300.55 343.43 Q 4300.55 344.00 4300.55 344.28 Q 4300.55 344.56 4300.55 345.13 Q 4300.55 345.70 4300.55 345.98 Q 4300.55 346.26 4300.55 346.54 Q 4300.55 346.83 4300.55 347.11 Q 4300.55 347.39 4300.55 347.68 Q 4300.55 347.96 4300.55 348.24 Q 4300.55 348.53 4300.55 349.09 Q 4300.55 349.66 4300.55 349.94 Q 4300.55 350.23 4300.84 351.08 Q 4301.12 351.93 4301.12 352.21 Q 4301.12 352.49 4301.12 353.06 Q 4301.12 353.62 4301.40 353.91 Q 4301.69 354.19 4301.69 354.47 Q 4301.69 354.76 4301.69 355.04 Q 4301.69 355.32 4301.69 355.61 Q 4301.69 355.89 4301.97 356.17 Q 4302.25 356.46 4302.25 356.74 Q 4302.25 357.02 4302.25 357.59 Q 4302.25 358.16 4302.53 358.44 Q 4302.82 358.72 4302.82 359.57 Q 4302.82 360.42 4302.82 360.99 Q 4302.82 361.55 4303.10 362.12 Q 4303.38 362.69 4303.38 362.97 Q 4303.38 363.25 4303.38 364.10 Q 4303.38 364.95 4303.67 365.52 Q 4303.95 366.09 4303.95 366.37 Q 4303.95 366.65 4303.95 366.94 Q 4303.95 367.22 4303.95 367.50 Q 4303.95 367.79 4303.95 368.07 Q 4303.95 368.35 4303.95 368.63 Q 4303.95 368.92 4303.95 369.20 Q 4303.95 369.48 4303.95 369.77 Q 4303.95 370.05 4303.95 370.33 Q 4303.95 370.62 4303.95 371.18 Q 4303.95 371.75 4304.23 372.32 Q 4304.52 372.88 4304.52 373.17 Q 4304.52 373.45 4304.52 374.02 Q 4304.52 374.58 4304.52 375.15 Q 4304.52 375.71 4304.52 376.00 Q 4304.52 376.28 4304.52 376.56 Q 4304.52 376.85 4304.80 377.41 Q 4305.08 377.98 4305.08 378.26 Q 4305.08 378.55 4305.08 378.83 Q 4305.08 379.11 4305.08 379.40 Q 4305.08 379.68 4305.37 379.96 Q 4305.65 380.25 4305.65 381.66 Q 4305.65 383.08 4305.65 383.93 Q 4305.65 384.78 4305.65 385.34 Q 4305.65 385.91 4305.65 386.76 Q 4305.65 387.61 4305.65 388.46 Q 4305.65 389.31 4305.65 390.44 Q 4305.65 391.57 4305.65 392.14 Q 4305.65 392.71 4305.65 393.56 Q 4305.65 394.41 4305.65 394.97 Q 4305.65 395.54 4305.65 396.11 Q 4305.65 396.67 4305.65 396.96 Q 4305.65 397.24 4305.65 397.52 Q 4305.65 397.80 4305.65 398.09 Q 4305.65 398.37 4305.65 398.65 Q 4305.65 398.94 4305.65 399.22 Q 4305.65 399.50 4305.65 399.79 Q 4305.65 400.07 4305.65 400.64 Q 4305.65 401.20 4305.65 401.49 Q 4305.65 401.77 4305.65 402.62 Q 4305.65 403.47 4305.65 404.32 Q 4305.65 405.17 4305.65 405.73 Q 4305.65 406.30 4305.65 406.87 Q 4305.65 407.43 4305.65 408.28 Q 4305.65 409.13 4305.65 409.42 Q 4305.65 409.70 4305.65 410.27 Q 4305.65 410.83 4305.65 411.12 Q 4305.65 411.40 4305.65 411.68 Q 4305.65 411.96 4305.65 412.53 Q 4305.65 413.10 4305.65 413.66 Q 4305.65 414.23 4305.65 415.08 Q 4305.65 415.93 4305.65 416.21 Q 4305.65 416.50 4305.65 417.06 Q 4305.65 417.63 4305.65 418.76 Q 4305.65 419.89 4305.65 420.46 Q 4305.65 421.03 4305.65 421.31 Q 4305.65 421.59 4305.65 422.73 Q 4305.65 423.86 4305.65 424.14 Q 4305.65 424.43 4305.65 424.99 Q 4305.65 425.56 4305.65 425.84 Q 4305.65 426.12 4305.65 426.41 Q 4305.65 426.69 4305.65 426.97 Q 4305.65 427.26 4305.65 427.54 Q 4305.65 427.82 4305.65 428.39 Q 4305.65 428.96 4305.65 429.52 Q 4305.65 430.09 4305.65 430.66 Q 4305.65 431.22 4305.65 431.79 Q 4305.65 432.36 4305.65 432.64 Q 4305.65 432.92 4305.93 432.92 Q 4306.22 432.92 4306.22 433.21 Q 4306.22 433.49 4306.22 434.05 Q 4306.22 434.62 4306.22 434.90 Q 4306.22 435.19 4306.22 435.75 Q 4306.22 436.32 4306.50 436.89 Q 4306.78 437.45 4306.78 438.02 Q 4306.78 438.59 4306.78 439.44 Q 4306.78 440.29 4306.78 440.85 Q 4306.78 441.42 4306.78 441.98 Q 4306.78 442.55 4306.78 443.68 Q 4306.78 444.82 4306.49 445.38 Q 4306.21 445.95 4306.21 446.80 Q 4306.21 447.65 4306.21 448.50 Q 4306.21 449.35 4305.92 449.91 Q 4305.63 450.48 4305.63 451.33 Q 4305.63 452.18 4305.63 453.03 Q 4305.63 453.88 4305.63 454.45 Q 4305.63 455.01 4305.63 455.29 Q 4305.63 455.58 4305.63 456.43 Q 4305.63 457.28 4305.63 457.56 Q 4305.63 457.84 4305.63 458.13 Q 4305.63 458.41 4305.34 458.98 Q 4305.05 459.54 4305.05 459.83 Q 4305.05 460.11 4305.05 460.39 Q 4305.05 460.68 4305.05 460.96 Q 4305.05 461.24 4304.77 461.53 Q 4304.48 461.81 4304.48 462.09 Q 4304.48 462.37 4304.48 462.66 Q 4304.48 462.94 4304.48 463.51 Q 4304.48 464.07 4304.48 464.36 Q 4304.48 464.64 4304.48 464.92 Q 4304.48 465.21 4304.48 465.49 Q 4304.48 465.77 4304.48 466.34 Q 4304.48 466.91 4304.48 467.19 Q 4304.48 467.47 4304.48 467.76 Q 4304.48 468.04 4304.48 468.32 Q 4304.48 468.61 4304.48 468.89 Q 4304.48 469.17 4304.48 469.74 Q 4304.48 470.30 4304.48 470.59 Q 4304.48 470.87 4304.48 471.15 Q 4304.48 471.44 4304.19 472.29 Q 4303.90 473.14 4303.90 473.70 Q 4303.90 474.27 4303.90 474.55 Q 4303.90 474.84 4303.90 475.12 Q 4303.90 475.40 4303.90 475.97 Q 4303.90 476.54 4303.90 476.82 Q 4303.90 477.10 4303.61 477.10 Q 4303.33 477.10 4303.04 477.10 Q 4302.75 477.10 4302.46 477.10 Q 4302.17 477.10 4301.89 477.10 Q 4301.60 477.10 4301.31 477.38 Q 4301.02 477.67 4300.73 477.67 Q 4300.45 477.67 4300.45 477.95 Q 4300.45 478.23 4300.16 478.23 Q 4299.87 478.23 4299.58 478.23 Q 4299.29 478.23 4299.00 478.23 Q 4298.72 478.23 4298.43 478.52 Q 4298.14 478.80 4297.85 478.80 Q 4297.56 478.80 4297.56 479.08 Q 4297.56 479.37 4297.28 479.37 Q 4296.99 479.37 4296.70 479.65 Q 4296.41 479.93 4295.84 479.93 Q 4295.26 479.93 4294.68 480.22 Q 4294.11 480.50 4293.53 480.78 Q 4292.95 481.07 4292.38 481.35 Q 4291.80 481.63 4291.23 481.92 Q 4290.65 482.20 4290.07 482.77 Q 4289.50 483.33 4289.21 483.33 Q 4288.92 483.33 4288.63 483.33 Q 4288.35 483.33 4288.35 483.62 Q 4288.35 483.90 4287.77 484.18 Q 4287.19 484.46 4286.62 484.75 Q 4286.04 485.03 4285.18 485.31 Q 4284.31 485.60 4284.31 485.88 Q 4284.31 486.16 4282.87 487.01 Q 4281.43 487.86 4280.86 487.86 Q 4280.28 487.86 4279.41 488.43 Q 4278.55 489.00 4277.69 489.56 Q 4276.82 490.13 4276.53 490.13 Q 4276.25 490.13 4276.25 490.41 Q 4276.25 490.70 4275.96 490.70 Q 4275.67 490.70 4275.09 491.26 Q 4274.52 491.83 4273.94 492.11 Q 4273.37 492.39 4272.79 492.68 Q 4272.21 492.96 4271.35 493.24 Q 4270.48 493.53 4270.20 493.81 Q 4269.91 494.09 4269.62 494.09 Q 4269.33 494.09 4269.04 494.66 Q 4268.76 495.23 4268.47 495.23 Q 4268.18 495.23 4267.89 495.51 Q 4267.60 495.79 4267.32 496.08 Q 4267.03 496.36 4266.45 496.64 Q 4265.87 496.93 4265.59 497.21 Q 4265.30 497.49 4265.01 497.49 Q 4264.72 497.49 4264.43 497.78 Q 4264.15 498.06 4263.86 498.34 Q 4263.57 498.62 4262.42 499.19 Q 4261.27 499.76 4260.69 500.04 Q 4260.11 500.32 4259.82 500.61 Q 4259.54 500.89 4258.67 501.46 Q 4257.81 502.02 4257.52 502.02 Q 4257.23 502.02 4256.94 502.31 Q 4256.66 502.59 4256.37 502.87 Q 4256.08 503.16 4255.79 503.16 Q 4255.50 503.16 4255.79 503.16 Q 4256.07 503.16 4256.35 503.44 Q 4256.64 503.72 4256.64 504.01 Q 4256.64 504.29 4256.64 504.57 Q 4256.64 504.86 4256.64 505.14 Q 4256.64 505.42 4256.92 505.71 Q 4257.20 505.99 4257.20 506.55 Q 4257.20 507.12 4257.20 507.69 Q 4257.20 508.25 4257.20 508.82 Q 4257.20 509.39 4257.20 510.24 Q 4257.20 511.09 4257.20 511.37 Q 4257.20 511.65 4257.20 511.94 Q 4257.20 512.22 4257.20 512.50 Q 4257.20 512.79 4257.20 513.07 Q 4257.20 513.35 4257.20 513.63 Q 4257.20 513.92 4257.20 514.20 Q 4257.20 514.48 4257.20 515.05 Q 4257.20 515.62 4257.20 516.18 Q 4257.20 516.75 4257.20 517.32 Q 4257.20 517.88 4257.20 518.45 Q 4257.20 519.02 4256.91 519.58 Q 4256.63 520.15 4256.63 521.00 Q 4256.63 521.85 4256.63 522.70 Q 4256.63 523.55 4256.63 524.11 Q 4256.63 524.68 4256.63 525.53 Q 4256.63 526.38 4256.63 527.23 Q 4256.63 528.08 4256.63 528.36 Q 4256.63 528.64 4256.63 528.93 Q 4256.63 529.21 4256.63 529.78 Q 4256.63 530.34 4256.63 530.63 Q 4256.63 530.91 4256.63 531.76 Q 4256.63 532.61 4256.63 532.89 Q 4256.63 533.18 4256.63 534.03 Q 4256.63 534.87 4256.34 535.44 Q 4256.05 536.01 4256.05 536.86 Q 4256.05 537.71 4256.05 538.27 Q 4256.05 538.84 4256.05 539.69 Q 4256.05 540.54 4256.05 541.11 Q 4256.05 541.67 4256.05 541.96 Q 4256.05 542.24 4256.05 542.80 Q 4256.05 543.37 4256.05 543.65 Q 4256.05 543.94 4256.05 544.22 Q 4256.05 544.50 4256.05 544.79 Q 4256.05 545.07 4256.05 545.35 Q 4256.05 545.64 4256.05 545.92 Q 4256.05 546.20 4256.05 546.49 Q 4256.05 546.77 4255.76 547.05 Q 4255.47 547.34 4255.47 547.62 Q 4255.47 547.90 4255.47 548.19 Q 4255.47 548.47 4255.47 548.75 Q 4255.47 549.04 4255.47 549.32 Q 4255.47 549.60 4255.47 549.88 Q 4255.47 550.17 4255.47 550.45 Q 4255.47 550.73 4255.47 551.02 Q 4255.47 551.30 4255.47 551.58 Q 4255.47 551.87 4255.47 552.15 Q 4255.47 552.43 4255.47 552.72 Q 4255.47 553.00 4255.47 553.28 Q 4255.47 553.57 4255.47 554.13 Q 4255.47 554.70 4255.76 554.98 Q 4256.04 555.27 4256.04 555.83 Q 4256.04 556.40 4256.04 556.68 Q 4256.04 556.96 4256.32 556.96 Q 4256.61 556.96 4256.61 557.25 Q 4256.61 557.53 4256.61 557.81 Q 4256.61 558.10 4256.61 558.38 Q 4256.61 558.66 4256.61 558.95 Q 4256.61 559.23 4256.32 559.23 Q 4256.03 559.23 4256.03 558.94 Q 4256.03 558.65 4256.03 558.37 Q 4256.03 558.08 4256.03 557.79 Q 4256.03 557.50 4256.60 557.21 Q 4257.16 556.93 4257.16 556.64 Q 4257.16 556.35 4257.45 556.06 Q 4257.73 555.77 4258.01 555.49 Q 4258.30 555.20 4258.58 554.91 Q 4258.86 554.62 4258.86 554.33 Q 4258.86 554.04 4259.15 553.76 Q 4259.43 553.47 4259.71 553.18 Q 4260.00 552.89 4260.28 552.32 Q 4260.56 551.74 4261.13 551.45 Q 4261.70 551.16 4261.70 550.88 Q 4261.70 550.59 4262.26 550.30 Q 4262.83 550.01 4263.11 549.72 Q 4263.39 549.44 4263.68 549.44 Q 4263.96 549.44 4264.24 549.15 Q 4264.53 548.86 4264.81 548.57 Q 4265.09 548.28 4265.38 548.00 Q 4265.66 547.71 4265.94 547.71 Q 4266.23 547.71 4266.51 547.42 Q 4266.79 547.13 4267.08 547.13 Q 4267.36 547.13 4267.93 546.84 Q 4268.49 546.55 4268.78 546.55 Q 4269.06 546.55 4269.91 545.98 Q 4270.76 545.40 4271.32 545.11 Q 4271.89 544.83 4272.74 544.54 Q 4273.59 544.25 4273.87 543.96 Q 4274.16 543.67 4275.29 543.39 Q 4276.42 543.10 4277.27 542.81 Q 4278.12 542.52 4278.69 542.23 Q 4279.25 541.95 4279.54 541.95 Q 4279.82 541.95 4280.10 541.95 Q 4280.39 541.95 4280.95 541.66 Q 4281.52 541.37 4281.80 541.37 Q 4282.09 541.37 4282.37 541.37 Q 4282.65 541.37 4282.94 541.08 Q 4283.22 540.79 4283.78 540.79 Q 4284.35 540.79 4284.92 540.50 Q 4285.48 540.22 4286.05 539.93 Q 4286.62 539.64 4287.47 539.35 Q 4288.32 539.06 4288.88 539.06 Q 4289.45 539.06 4290.02 538.78 Q 4290.58 538.49 4291.15 538.49 Q 4291.71 538.49 4292.00 538.49 Q 4292.28 538.49 4292.28 538.20 Q 4292.28 537.91 4292.56 537.91 Q 4292.85 537.91 4293.41 537.62 Q 4293.98 537.34 4294.55 537.34 Q 4295.11 537.34 4295.96 537.05 Q 4296.81 536.76 4297.38 536.47 Q 4297.95 536.18 4298.79 535.90 Q 4299.64 535.61 4300.49 535.32 Q 4301.34 535.03 4302.19 534.74 Q 4303.04 534.46 4303.61 534.46 Q 4304.18 534.46 4304.46 534.17 Q 4304.74 533.88 4305.03 533.88 Q 4305.31 533.88 4305.87 533.59 Q 4306.44 533.30 4307.01 533.01 Q 4307.57 532.73 4308.14 532.73 Q 4308.71 532.73 4309.56 532.44 Q 4310.41 532.15 4311.26 532.15 Q 4312.11 532.15 4312.95 531.86 Q 4313.80 531.57 4314.37 531.29 Q 4314.94 531.00 4315.22 531.00 Q 4315.50 531.00 4316.35 530.71 Q 4317.20 530.42 4317.49 530.42 Q 4317.77 530.42 4318.05 530.13 Q 4318.34 529.85 4318.62 529.85 Q 4318.90 529.85 4318.90 529.56 Q 4318.90 529.27 4319.47 528.98 Q 4320.03 528.69 4320.88 528.41 Q 4321.73 528.12 4322.30 527.83 Q 4322.87 527.54 4324.00 527.25 Q 4325.13 526.96 4325.42 526.68 Q 4325.70 526.39 4327.12 525.81 Q 4328.53 525.24 4328.81 524.95 Q 4329.10 524.66 4329.66 524.37 Q 4330.23 524.08 4330.51 523.80 Q 4330.80 523.51 4331.36 523.22 Q 4331.93 522.93 4332.21 522.64 Q 4332.50 522.36 4333.06 522.36 Q 4333.63 522.36 4334.20 522.07 Q 4334.76 521.78 4335.04 521.49 Q 4335.33 521.20 4335.89 520.92 Q 4336.46 520.63 4337.03 520.34 Q 4337.59 520.05 4337.88 519.76 Q 4338.16 519.47 4338.44 519.19 Q 4338.73 518.90 4339.01 518.90 Q 4339.29 518.90 4339.58 518.61 Q 4339.86 518.32 4340.14 518.03 Q 4340.43 517.75 4340.71 517.75 Q 4340.99 517.75 4341.84 517.17 Q 4342.69 516.59 4342.97 516.31 Q 4343.26 516.02 4343.54 516.02 Q 4343.82 516.02 4344.39 515.73 Q 4344.96 515.44 4345.24 515.15 Q 4345.52 514.87 4345.81 514.58 Q 4346.09 514.29 4346.37 514.29 Q 4346.66 514.29 4346.94 514.29 Q 4347.22 514.29 4347.22 514.00 Q 4347.22 513.71 4347.22 513.42 Q 4347.22 513.14 4347.51 513.14 Q 4347.79 513.14 4348.07 512.85 Q 4348.36 512.56 4348.64 512.27 Q 4348.92 511.98 4349.20 511.98 Q 4349.49 511.98 4349.49 511.70 Q 4349.49 511.41 4350.05 511.12 Q 4350.62 510.83 4350.90 510.54 Q 4351.19 510.26 4351.47 509.97 Q 4351.75 509.68 4352.32 509.68 Q 4352.89 509.68 4353.17 509.39 Q 4353.45 509.10 4353.74 509.10 Q 4354.02 509.10 4354.02 508.82 Q 4354.02 508.53 4354.30 508.53 Q 4354.59 508.53 4354.87 508.24 Q 4355.15 507.95 4355.44 507.95 Q 4355.72 507.95 4356.00 507.66 Q 4356.28 507.37 4356.57 506.80 Q 4356.85 506.22 4357.13 505.93 Q 4357.42 505.65 4357.42 505.36 Q 4357.42 505.07 4357.70 504.49 Q 4357.98 503.92 4357.98 503.63 Q 4357.98 503.34 4358.27 502.77 Q 4358.55 502.19 4358.55 501.90 Q 4358.55 501.61 4358.55 501.33 Q 4358.55 501.04 4358.55 500.75 Q 4358.55 500.46 4358.83 500.46 Q 4359.12 500.46 4359.12 500.17 Q 4359.12 499.88 4359.12 499.60 Q 4359.12 499.31 4359.12 499.02 Q 4359.12 498.73 4358.83 498.16 Q 4358.54 497.58 4358.54 497.29 Q 4358.54 497.00 4358.25 496.72 Q 4357.96 496.43 4357.96 496.14 Q 4357.96 495.85 4357.96 495.56 Q 4357.96 495.28 4357.96 494.99 Q 4357.96 494.70 4357.68 494.70 Q 4357.39 494.70 4357.39 494.41 Q 4357.39 494.12 4357.39 493.83 Q 4357.39 493.55 4357.39 492.97 Q 4357.39 492.39 4357.39 492.11 Q 4357.39 491.82 4357.39 491.24 Q 4357.39 490.67 4357.39 489.80 Q 4357.39 488.94 4357.39 488.07 Q 4357.39 487.21 4357.39 486.63 Q 4357.39 486.06 4357.39 485.48 Q 4357.39 484.90 4357.39 484.33 Q 4357.39 483.75 4357.39 483.46 Q 4357.39 483.18 4357.39 482.60 Q 4357.39 482.02 4357.39 481.45 Q 4357.39 480.87 4357.39 480.58 Q 4357.39 480.29 4357.67 479.72 Q 4357.95 479.14 4357.95 478.57 Q 4357.95 477.99 4357.95 477.70 Q 4357.95 477.41 4357.95 476.84 Q 4357.95 476.26 4357.95 475.69 Q 4357.95 475.11 4357.95 474.82 Q 4357.95 474.53 4357.95 474.25 Q 4357.95 473.96 4357.95 473.67 Q 4357.95 473.38 4357.95 473.09 Q 4357.95 472.80 4357.95 472.52 Q 4357.95 472.23 4357.95 471.94 Q 4357.95 471.65 4357.95 471.36 Q 4357.95 471.08 4357.95 470.79 Q 4357.95 470.50 4357.95 469.92 Q 4357.95 469.35 4357.95 469.06 Q 4357.95 468.77 4357.95 468.20 Q 4357.95 467.62 4357.95 467.04 Q 4357.95 466.47 4357.95 465.89 Q 4357.95 465.31 4357.95 464.74 Q 4357.95 464.16 4357.95 463.59 Q 4357.95 463.01 4357.95 462.72 Q 4357.95 462.43 4357.95 461.57 Q 4357.95 460.71 4357.95 460.13 Q 4357.95 459.55 4357.95 459.26 Q 4357.95 458.98 4357.95 458.69 Q 4357.95 458.40 4357.95 458.11 Q 4357.95 457.82 4357.95 457.54 Q 4357.95 457.25 4357.95 456.96 Q 4357.95 456.67 4357.67 456.38 Q 4357.38 456.10 4357.38 455.81 Q 4357.38 455.52 4357.38 455.23 Q 4357.38 454.94 4357.38 454.66 Q 4357.38 454.37 4357.38 454.08 Q 4357.38 453.79 4357.38 453.21 Q 4357.38 452.64 4357.38 452.06 Q 4357.38 451.49 4357.66 450.91 Q 4357.95 450.33 4357.95 449.76 Q 4357.95 449.18 4357.95 448.61 Q 4357.95 448.03 4357.95 447.45 Q 4357.95 446.88 4357.95 446.59 Q 4357.95 446.30 4357.95 445.44 Q 4357.95 444.57 4357.95 444.00 Q 4357.95 443.42 4357.95 442.84 Q 4357.95 442.27 4357.95 441.40 Q 4357.95 440.54 4358.23 439.96 Q 4358.51 439.39 4358.51 439.10 Q 4358.51 438.81 4358.51 438.52 Q 4358.51 438.23 4358.51 437.37 Q 4358.51 436.51 4358.51 435.93 Q 4358.51 435.35 4358.79 434.78 Q 4359.08 434.20 4359.08 433.34 Q 4359.08 432.47 4359.36 431.90 Q 4359.64 431.32 4359.64 430.74 Q 4359.64 430.17 4359.64 429.59 Q 4359.64 429.02 4359.64 428.73 Q 4359.64 428.44 4359.64 427.86 Q 4359.64 427.29 4359.64 427.00 Q 4359.64 426.71 4359.64 426.42 Q 4359.64 426.13 4359.64 425.85 Q 4359.64 425.56 4359.64 425.27 Q 4359.64 424.98 4359.93 424.69 Q 4360.21 424.41 4360.21 424.12 Q 4360.21 423.83 4360.21 423.54 Q 4360.21 423.25 4360.21 422.68 Q 4360.21 422.10 4360.49 421.53 Q 4360.78 420.95 4360.78 420.37 Q 4360.78 419.80 4360.78 418.93 Q 4360.78 418.07 4361.06 417.78 Q 4361.34 417.49 4361.34 416.63 Q 4361.34 415.76 4361.34 415.19 Q 4361.34 414.61 4361.34 414.04 Q 4361.34 413.46 4361.63 412.88 Q 4361.91 412.31 4361.91 412.02 Q 4361.91 411.73 4361.91 411.44 Q 4361.91 411.15 4361.91 410.87 Q 4361.91 410.58 4361.91 410.29 Q 4361.91 410.00 4361.91 409.71 Q 4361.91 409.43 4361.91 409.14 Q 4361.91 408.85 4361.91 408.56 Q 4361.91 408.27 4362.19 407.70 Q 4362.48 407.12 4362.48 406.54 Q 4362.48 405.97 4362.48 405.68 Q 4362.48 405.39 4362.48 404.82 Q 4362.48 404.24 4362.48 403.95 Q 4362.48 403.66 4362.48 403.38 Q 4362.48 403.09 4362.76 402.80 Q 4363.04 402.51 4363.04 402.22 Q 4363.04 401.94 4363.04 401.65 Q 4363.04 401.36 4363.04 401.07 Q 4363.04 400.78 4363.04 400.21 Q 4363.04 399.63 4363.04 399.34 Q 4363.04 399.05 4363.04 398.77 Q 4363.04 398.48 4363.04 398.19 Q 4363.04 397.90 4363.04 397.61 Q 4363.04 397.33 4363.04 396.46 Q 4363.04 395.60 4363.33 395.31 Q 4363.61 395.02 4363.61 394.45 Q 4363.61 393.87 4363.61 393.29 Q 4363.61 392.72 4363.61 392.43 Q 4363.61 392.14 4363.61 391.56 Q 4363.61 390.99 4363.89 390.41 Q 4364.18 389.84 4364.18 389.55 Q 4364.18 389.26 4364.18 388.68 Q 4364.18 388.11 4364.18 387.53 Q 4364.18 386.96 4364.18 386.38 Q 4364.18 385.80 4364.18 385.23 Q 4364.18 384.65 4364.18 384.07 Q 4364.18 383.50 4364.18 382.63 Q 4364.18 381.77 4364.46 380.91 Q 4364.74 380.04 4364.74 379.75 Q 4364.74 379.46 4364.74 378.02 Q 4364.74 376.58 4365.03 376.01 Q 4365.31 375.43 4365.31 374.86 Q 4365.31 374.28 4365.31 373.70 Q 4365.31 373.13 4365.31 372.55 Q 4365.31 371.97 4365.31 371.69 Q 4365.31 371.40 4365.31 371.11 Q 4365.31 370.82 4365.31 370.53 Q 4365.31 370.25 4365.31 369.96 Q 4365.31 369.67 4365.31 369.38 Q 4365.31 369.09 4365.31 368.52 Q 4365.31 367.94 4365.31 367.65 Q 4365.31 367.37 4365.31 367.08 Q 4365.31 366.79 4365.31 366.21 Q 4365.31 365.64 4365.31 365.35 Q 4365.31 365.06 4365.31 364.20 Q 4365.31 363.33 4365.31 362.76 Q 4365.31 362.18 4365.31 361.89 Q 4365.31 361.60 4365.31 361.03 Q 4365.31 360.45 4365.31 360.16 Q 4365.31 359.87 4365.31 359.30 Q 4365.31 358.72 4365.31 358.43 Q 4365.31 358.15 4365.31 357.86 Q 4365.31 357.57 4365.31 357.28 Q 4365.31 356.99 4365.31 356.71 Q 4365.31 356.42 4365.31 356.13 Q 4365.31 355.84 4365.31 355.55 Q 4365.31 355.27 4365.31 354.69 Q 4365.31 354.11 4365.31 353.54 Q 4365.31 352.96 4365.31 352.38 Q 4365.31 351.81 4365.31 351.23 Q 4365.31 350.66 4365.31 350.08 Q 4365.31 349.50 4365.59 348.93 Q 4365.87 348.35 4365.87 348.06 Q 4365.87 347.78 4365.87 347.49 Q 4365.87 347.20 4365.87 346.91 Q 4365.87 346.62 4365.87 346.05 Q 4365.87 345.47 4365.87 345.18 Q 4365.87 344.89 4365.87 344.32 Q 4365.87 343.74 4365.87 343.45 Q 4365.87 343.17 4365.87 342.59 Q 4365.87 342.01 4365.87 341.44 Q 4365.87 340.86 4365.87 340.00 Q 4365.87 339.13 4365.87 338.27 Q 4365.87 337.40 4365.87 337.12 Q 4365.87 336.83 4365.87 336.25 Q 4365.87 335.68 4365.87 335.10 Q 4365.87 334.52 4365.87 334.24 Q 4365.87 333.95 4365.87 333.08 Q 4365.87 332.22 4366.16 331.93 Q 4366.44 331.64 4366.44 331.07 Q 4366.44 330.49 4366.44 330.20 Q 4366.44 329.91 4366.44 329.63 Q 4366.44 329.34 4366.44 328.76 Q 4366.44 328.19 4366.44 327.90 Q 4366.44 327.61 4366.44 326.75 Q 4366.44 325.88 4366.44 325.59 Q 4366.44 325.30 4366.44 324.73 Q 4366.44 324.15 4366.44 323.86 Q 4366.44 323.58 4366.44 323.00 Q 4366.44 322.42 4366.44 321.56 Q 4366.44 320.70 4366.44 320.41 Q 4366.44 320.12 4366.44 319.83 Q 4366.44 319.54 4366.44 319.25 Q 4366.44 318.97 4366.44 318.39 Q 4366.44 317.81 4366.44 317.53 Q 4366.44 317.24 4366.44 316.95 Q 4366.44 316.66 4366.44 316.37 Q 4366.44 316.09 4366.44 315.80 Q 4366.44 315.51 4366.44 315.22 Q 4366.44 314.93 4366.44 314.65 Q 4366.44 314.36 4366.44 314.07 Q 4366.44 313.78 4366.44 313.49 Q 4366.44 313.21 4366.44 312.92 Q 4366.44 312.63 4366.44 312.34 Q 4366.44 312.05 4366.44 311.76 Q 4366.44 311.48 4366.44 311.19 Q 4366.44 310.90 4366.44 310.61 Q 4366.44 310.32 4366.44 310.04 Q 4366.44 309.75 4366.44 309.46 Q 4366.44 309.17 4366.15 308.88 Q 4365.87 308.60 4365.87 308.31 Q 4365.87 308.02 4365.87 307.73 Q 4365.87 307.44 4365.87 307.16 Q 4365.87 306.87 4365.58 306.29 Q 4365.29 305.71 4365.29 305.43 Q 4365.29 305.14 4365.29 304.56 Q 4365.29 303.99 4365.29 303.70 Q 4365.29 303.41 4365.29 303.12 Q 4365.29 302.83 4365.29 302.26 Q 4365.29 301.68 4365.29 301.11 Q 4365.29 300.53 4365.29 300.24 Q 4365.29 299.95 4365.29 299.67 Q 4365.29 299.38 4365.00 299.09 Q 4364.71 298.80 4364.71 298.51 Q 4364.71 298.22 4364.42 297.94 Q 4364.14 297.65 4364.14 297.07 Q 4364.14 296.50 4364.14 296.21 Q 4364.14 295.92 4364.14 295.34 Q 4364.14 294.77 4363.85 294.19 Q 4363.56 293.62 4363.56 293.33 Q 4363.56 293.04 4363.56 292.75 Q 4363.56 292.46 4363.56 292.17 Q 4363.56 291.89 4363.27 291.60 Q 4362.98 291.31 4362.70 290.73 Q 4362.41 290.16 4362.12 289.87 Q 4361.83 289.58 4361.54 289.01 Q 4361.26 288.43 4360.68 287.85 Q 4360.10 287.28 4360.10 286.99 Q 4360.10 286.70 4359.82 286.41 Q 4359.53 286.12 4359.24 285.84 Q 4358.95 285.55 4358.66 285.26 Q 4358.37 284.97 4358.09 284.68 Q 4357.80 284.40 4357.80 284.11 Q 4357.80 283.82 4357.51 283.53 Q 4357.22 283.24 4356.93 282.96 Q 4356.65 282.67 4356.65 282.38 Q 4356.65 282.09 4356.36 282.09 Q 4356.07 282.09 4355.78 281.80 Q 4355.49 281.52 4355.49 281.23 Q 4355.49 280.94 4355.21 280.65 Q 4354.92 280.36 4354.63 280.08 Q 4354.34 279.79 4354.05 279.50 Q 4353.77 279.21 4353.48 278.92 Q 4353.19 278.63 4352.90 278.63 Q 4352.61 278.63 4352.32 278.35 Q 4352.04 278.06 4352.04 277.77 Q 4352.04 277.48 4351.75 277.48 Q 4351.46 277.48 4351.46 277.19 Q 4351.46 276.91 4351.17 276.91 Q 4350.88 276.91 4350.60 276.62 Q 4350.31 276.33 4350.02 276.04 Q 4349.73 275.75 4349.16 275.75 Q 4348.58 275.75 4348.29 275.47 Q 4348.00 275.18 4347.72 274.89 Q 4347.43 274.60 4346.85 274.60 Q 4346.28 274.60 4346.28 274.31 Q 4346.28 274.03 4345.99 273.74 Q 4345.70 273.45 4345.41 273.45 Q 4345.12 273.45 4344.83 273.16 Q 4344.55 272.87 4344.26 272.87 Q 4343.97 272.87 4343.97 272.58 Q 4343.97 272.30 4343.68 272.30 Q 4343.39 272.30 4343.11 272.01 Q 4342.82 271.72 4342.53 271.72 Q 4342.24 271.72 4341.95 271.72 Q 4341.67 271.72 4341.38 271.43 Q 4341.09 271.14 4340.80 271.14 Q 4340.51 271.14 4340.23 270.86 Q 4339.94 270.57 4339.65 270.28 Q 4339.36 269.99 4339.07 269.99 Q 4338.78 269.99 4338.78 269.70 Q 4338.78 269.42 4338.21 269.42 Q 4337.63 269.42 4337.06 268.84 Q 4336.48 268.26 4336.19 268.26 Q 4335.90 268.26 4335.62 267.98 Q 4335.33 267.69 4335.04 267.69 Q 4334.75 267.69 4334.46 267.40 Q 4334.18 267.11 4333.89 267.11 Q 4333.60 267.11 4333.31 267.11 Q 4333.02 267.11 4332.74 266.82 Q 4332.45 266.54 4331.87 266.25 Q 4331.29 265.96 4330.72 265.67 Q 4330.14 265.38 4329.28 264.81 Q 4328.41 264.23 4328.13 264.23 Q 4327.84 264.23 4326.69 263.65 Q 4325.53 263.08 4324.67 262.79 Q 4323.80 262.50 4323.52 262.21 Q 4323.23 261.93 4320.64 261.06 Q 4318.04 260.20 4317.47 259.91 Q 4316.89 259.62 4316.31 259.33 Q 4315.74 259.04 4315.45 259.04 Q 4315.16 259.04 4314.87 258.76 Q 4314.59 258.47 4314.30 258.47 Q 4314.01 258.47 4313.72 258.18 Q 4313.43 257.89 4313.15 257.60 Q 4312.86 257.32 4312.57 257.32 Q 4312.28 257.32 4311.99 257.03 Q 4311.70 256.74 4311.13 256.45 Q 4310.55 256.16 4309.98 255.88 Q 4309.40 255.59 4309.11 255.30 Q 4308.82 255.01 4308.25 254.72 Q 4307.67 254.44 4307.10 254.15 Q 4306.52 253.86 4306.23 253.57 Q 4305.94 253.28 4305.37 253.00 Q 4304.79 252.71 4304.50 252.42 Q 4304.21 252.13 4303.64 251.84 Q 4303.06 251.55 4302.77 251.27 Q 4302.49 250.98 4301.91 250.69 Q 4301.33 250.40 4300.76 250.11 Q 4300.18 249.83 4299.89 249.54 Q 4299.61 249.25 4299.03 249.25 Q 4298.45 249.25 4297.88 248.67 Q 4297.30 248.10 4296.44 247.81 Q 4295.57 247.52 4295.00 247.23 Q 4294.42 246.95 4293.84 246.66 Q 4293.27 246.37 4292.98 246.37 Q 4292.69 246.37 4292.40 246.08 Q 4292.12 245.79 4291.83 245.79 Q 4291.54 245.79 4291.54 245.50 Q 4291.54 245.22 4291.25 245.22 Q 4290.96 245.22 4290.96 244.93 Q 4290.96 244.64 4290.67 244.64 Q 4290.39 244.64 4289.81 244.35 Q 4289.23 244.06 4288.66 243.49 Q 4288.08 242.91 4287.79 242.91 Q 4287.51 242.91 4286.93 242.34 Q 4286.35 241.76 4285.78 241.47 Q 4285.20 241.18 4284.91 241.18 Q 4284.62 241.18 4284.05 240.90 Q 4283.47 240.61 4283.47 240.32 Q 4283.47 240.03 4283.18 240.03 Q 4282.90 240.03 4282.61 240.03 Q 4282.32 240.03 4282.32 239.74 Q 4282.32 239.46 4282.03 239.46 Q 4281.74 239.46 4281.17 239.17 Q 4280.59 238.88 4280.30 238.88 Q 4280.02 238.88 4280.02 238.59 Q 4280.02 238.30 4279.73 238.30 Q 4279.44 238.30 4279.15 238.30 Q 4278.86 238.30 4278.57 238.01 Q 4278.29 237.73 4277.71 237.73 Q 4277.13 237.73 4276.85 237.44 Q 4276.56 237.15 4276.27 237.15 Q 4275.98 237.15 4275.41 236.86 Q 4274.83 236.57 4274.54 236.57 Q 4274.25 236.57 4273.97 236.29 Q 4273.68 236.00 4273.39 236.00 Q 4273.10 236.00 4272.81 236.00 Q 4272.53 236.00 4272.24 236.00 Q 4271.95 236.00 4271.66 236.00 Q 4271.37 236.00 4271.08 236.00 Q 4270.80 236.00 4270.51 235.71 Q 4270.22 235.42 4269.93 235.42 Q 4269.64 235.42 4269.36 235.42 Q 4269.07 235.42 4268.78 235.42 Q 4268.49 235.42 4268.20 235.42 Q 4267.92 235.42 4267.63 235.42 Q 4267.34 235.42 4267.05 235.42 Q 4266.76 235.42 4266.48 235.42 Q 4266.19 235.42 4265.90 235.42 Q 4265.61 235.42 4265.32 235.42 Q 4265.03 235.42 4264.75 235.42 Q 4264.46 235.42 4264.17 235.42 Q 4263.88 235.42 4263.59 235.42 Q 4263.31 235.42 4263.02 235.42 Q 4262.73 235.42 4262.73 235.13 Q 4262.73 234.85 4262.44 234.85 Q 4262.15 234.85 4261.87 234.56 Q 4261.58 234.27 4261.29 234.27 Q 4261.00 234.27 4259.30 231.64 L 4257.59 229.02 Z" fill="#fabfba" stroke="#fabfba" stroke-width="2" stroke-linecap="round" stroke-linejoin="round"/>
</svg>